<?xml version="1.0" encoding="utf-8"?>
<!-- Generator: Adobe Illustrator 17.0.0, SVG Export Plug-In . SVG Version: 6.00 Build 0)  -->
<!DOCTYPE svg PUBLIC "-//W3C//DTD SVG 1.1//EN" "http://www.w3.org/Graphics/SVG/1.1/DTD/svg11.dtd">
<svg version="1.1" id="Layer_1" xmlns="http://www.w3.org/2000/svg" xmlns:xlink="http://www.w3.org/1999/xlink" x="0px" y="0px"
	 width="291px" height="113px" viewBox="0 0 291 113" enable-background="new 0 0 291 113" xml:space="preserve">
<g>
	<g>
		<path fill="#FFFFFF" d="M150.316,18.939c2.457-0.273,5.077-0.623,7.448-0.891c6.702-0.757,16.937,0.307,18.616-5.121l-6.207-3.563
			c-1.897,0.965-3.113,3.776-5.791,5.122c-2.978,1.496-7.565,1.685-11.997,2.227c-3.327,0.406-26.316,3.031-29.168,3.34
			c-8.672,0.941-17.541,2.243-25.857,2.895c0.697,1.774,1.087,3.878,2.483,4.899c3.86-1.932,8.131-3.003,13.446-4.008
			C115.827,23.358,150.316,18.939,150.316,18.939z M172.685,71.379c-2.98,1.497-7.565,1.684-11.999,2.227
			c-3.327,0.407-30.793,3.031-33.643,3.34c-8.673,0.941-17.542,2.243-25.857,2.895c0.695,1.773,1.086,3.877,2.481,4.898
			c3.86-1.932,8.131-3.003,13.446-4.008c2.539-0.48,41.505-4.899,41.505-4.899c2.455-0.272,5.077-0.623,7.447-0.891
			c6.702-0.756,16.939,0.307,18.616-5.12l-6.206-3.564C176.579,67.222,175.363,70.034,172.685,71.379z M153.483,45.616
			c4.593-0.569,11.606,0.232,12.755-3.852l-4.251-2.679c-1.3,0.725-2.133,2.839-3.969,3.851c-2.04,1.126-5.182,1.267-8.219,1.674
			c-0.966,0.129-4.345,0.558-8.069,1.026c-0.205-8.98-0.325-16.965-0.283-17.804c0.116-2.361,1.724-3.074,2.704-4.597
			c-1.968-0.914-4.008-1.774-6.13-2.57c-1.282,0.456-2.622,2.859-2.888,4.868v20.93c-2.601,0.325-4.685,0.583-5.318,0.659
			c-5.941,0.707-12.017,1.687-17.714,2.177c0.477,1.334,0.744,2.917,1.702,3.684c2.643-1.453,5.569-2.258,9.211-3.015
			c0.811-0.168,6.396-0.983,12.119-1.803v27.936c1.232-0.252,2.881-0.971,4.33-1.623c1.241-0.558,2.947-1.351,3.245-2.163
			c0.297-0.806-0.159-2.356-0.205-3.154c-0.272-4.623-0.538-13.554-0.736-21.942c3.778-0.536,6.614-0.935,6.614-0.935
			C150.064,46.08,151.859,45.818,153.483,45.616z M137.8,11.251c2.525,0.228,3.029-0.207,4.014-1.162
			c-0.756-8.154-8.496-10.154-15.359-9.376c-0.1,0.033-0.198,0.065-0.297,0.098C130.934,2.977,135.273,11.025,137.8,11.251z
			 M195.068,50.944c1.868,0.705,3.775,1.498,4.124,3.406c2.019-1.191,3.168-3.288,4.656-5.017c4.41-5.128,8.442-10.538,13.49-15.031
			c0.148-0.003,0.128-0.209,0.164-0.352c-0.123-0.013-0.248-0.026-0.371-0.04c-6.827,2.682-11.768,6.967-17.172,11.546
			C198.241,46.911,195.85,48.589,195.068,50.944z M233.224,16.828c2.165-0.503,19.507-4.366,19.507-4.366
			c2.096-0.286,4.334-0.654,6.358-0.936c5.722-0.794,14.459,0.323,15.894-5.38l-5.298-3.743c-1.62,1.014-2.658,3.967-4.944,5.382
			c-1.151,0.711-8.559,2.479-17.199,4.184c-0.012-1.34-0.012-2.218,0-2.483c0.118-2.782,1.758-3.621,2.758-5.415
			c-2.007-1.077-4.088-2.09-6.255-3.028c-1.305,0.537-2.673,3.368-2.942,5.734v6.407c-8.657,1.556-17.331,2.798-21.476,2.711
			c0.595,1.864,0.928,4.074,2.12,5.147C225.041,19.01,228.686,17.886,233.224,16.828z M227.573,39.052
			c0.464,1.637,1.486,3.577,2.419,4.518c2.575-1.783,4.662-1.99,8.208-2.917c1.692-0.441,15.945-3.707,15.945-3.707
			c1.638-0.253,3.388-0.575,4.969-0.822c4.472-0.697,11.302-0.496,12.422-5.502l-4.141-3.285c-1.266,0.889-2.076,3.482-3.864,4.723
			c-1.521,1.055-18.286,4.795-28.74,6.335c6.209-4.73,10.957-10.958,13.192-19.76c-2.983-0.677-5.4-1.934-7.652-3.362
			c0.297,10.385-2.869,17.217-6.769,23.297C230.923,38.93,228.785,39.124,227.573,39.052z M284.433,66.762
			c-1.937,1.013-3.177,3.966-5.907,5.38c-2.522,1.306-6.178,1.664-9.933,2.074c0.467-0.38,0.835-0.783,0.956-1.191
			c0.28-0.95-0.126-2.245-0.169-3.185c-0.551-11.685-1.099-16.067-1.022-18.028c0.11-2.781,1.625-3.622,2.55-5.416
			c-1.855-1.076-3.78-2.09-5.782-3.027c-1.207,0.538-2.471,3.368-2.721,5.735v28.381c0.541-0.139,1.171-0.403,1.825-0.717
			l-0.047,0.052c2.501-0.285,5.175-0.654,7.593-0.936c6.833-0.794,17.272,0.323,18.984-5.38L284.433,66.762z M239.48,50.594
			c-2.471,0.114-4.775-0.103-6.115-2.182c-1.704,2.432-2.64,7.663-3.472,10.46c-2.473,8.297-8.616,22.018-8.705,22.175
			c-0.09,0.156-0.08,0.432-0.01,0.496c0.069,0.067,0.143,0.047,0.44-0.138c0.295-0.184,10.584-12.826,14.456-20.978
			C237.304,57.837,239.755,53.774,239.48,50.594z M215.096,23.914c-6.92-10.695-16.252-8.893-24.512-6.521
			c6.984,1.093,18.172,6.988,20.194,7.51C212.958,25.467,214.701,25.576,215.096,23.914z M217.848,51.415
			c-1.209,0.472-11.855,12.287-16.289,19.589c-0.562,0.924-1.233,1.857-1.841,2.837c-2.234-1.257-3.424-1.442-4.416-1.372
			c-0.992,0.069-1.717,0.768-1.689,0.958c0.029,0.19,7.488,7.974,8.167,8.26c0.679,0.286,1.473,0.052,1.655-0.103
			c1.502-1.274,3.203-5.118,4.144-7.408c3.114-7.573,10.505-22.172,10.645-22.382c0.14-0.211,0.197-0.377,0.057-0.467
			C218.141,51.238,218.161,51.293,217.848,51.415z M253.111,76.797c0.28-0.951-0.125-2.245-0.169-3.187
			c-0.313-6.638-0.623-24.173-0.82-26.992c-2.191-0.532-4.574-1.706-6.155-2.574v37.212c1.161-0.296,2.717-1.143,4.083-1.913
			C251.222,78.688,252.831,77.751,253.111,76.797z M45.406,81.583c5.793-3.487,13.255-8.316,19.28-10.966
			c0.165-0.092,0.24-0.136,0.285-0.285c-0.034-0.169-0.162-0.14-0.279-0.168c-3.805,0.153-11.577,2.416-17.864,4.709V27.137
			c0.169-1.372,0.609-2.425,2.588-2.705c0.66-0.094,5.636-0.502,9.36-0.953c3.71-0.45,7.508-0.79,11.32-1.053
			c0.347-0.901,0.706-2.518,0.628-3.892c-6.835,2.142-16.101,3.892-23.267,3.687c-1.853-0.053-1.293-4.486-1.286-7.946
			c2.945-0.855,10.352-3.07,14.336-3.641c2.611-0.374,8.797-1.799,10.846-1.053c3.362,1.226,2.718,17.739,2.201,20.54
			c-0.72,3.892-4.309,5.005-7.862,4.831c-5.508-0.271-10.889,0.356-16.979,0.307c3.013,1.638,7.017,1.168,11.006,1.799
			c4.224,0.667,8.47-0.246,12.263,0.57c0.883,0.19,1.997,0.281,2.985,0.042c0.83-0.2,3.849-3.828,4.087-4.565
			c0.267-0.828,0.032-1.693,0-2.633c-0.18-5.479-0.175-13.633-0.312-19.136c0.612-1.131,2.025-1.366,2.357-2.809
			c-1.253-1.644-2.476-3.32-4.243-4.389c-1.575,0.575-2.542,2.708-4.404,3.336c-1.489,0.502-3.541,0.379-5.501,0.701
			c-5.35,0.879-15.367,3.008-21.142,3.613c-1.294-1.382-3.334-3.619-4.954-4.14c-0.198,0.072-0.321,0.226-0.314,0.526v69.241
			c-1.596,0.74-2.712,1.377-3.06,1.803c1.198,1.332,1.714,4.165,1.164,6.147C40.789,84.901,43.455,82.758,45.406,81.583z
			 M71.729,61.374c7.568-3.723,17.195-9.868,18.093-11.586c-1.442-1.065-2.521-3.738-2.381-5.789
			c-2.01,0.886-4.188,3.519-5.861,5.06c-3.449,3.175-7.555,7.142-11.539,10.544C59.315,48.344,49.753,38.111,49.41,37.886
			c-0.195-0.127-0.344-0.095,0.026,0.665c1.188,2.952,8.463,13.667,16.482,24.374c-0.339,0.253-0.676,0.498-1.008,0.734
			c-0.142,0.124-0.208,0.181-0.221,0.336c0.066,0.159,0.189,0.104,0.307,0.108c0.442-0.109,0.937-0.262,1.47-0.448
			c7.609,10.116,15.773,20.067,19.988,23.29c2.394-1.03,3.743-2.19,4.707-5.614C85.753,75.98,78.592,68.565,71.729,61.374z
			 M22.137,28.286c3.145-2.068,6.433-4.434,9.728-7.123c0.641-0.522,1.913-1.719,2.156-3.41c-1.333-1.813-1.856-4.541-4.446-4.779
			c-1.519,0.774-0.981,1.481-3.377,4.957c-1.065,1.546-3.021,3.465-6.327,6.253c-1.377-2.354-4.052-6.842-5.265-8.298
			c-1.67-2.005-6.139-6.377-7.137-5.988c-1.073,1.529-4.19,5.293-4.19,5.293s3.539,0.256,6.292,2.147
			c1.365,0.937,3.086,2.839,4.069,4.35c1.106,1.699,2.149,4.208,2.635,5.448c-3.922,3.156-9.139,7.201-16.035,12.541
			c0,0,7.992-2.824,18.322-9.125c1.607,2.59,4.467,7.519,6.589,12.928c-1.435,1.065-2.628,2.606-3.96,3.856
			c-5.212,4.902-10.124,10.217-15.806,14.229c-0.141-0.033-0.163,0.21-0.227,0.367c0.114,0.044,0.23,0.09,0.342,0.135
			c6.99-1.482,12.527-5.275,18.563-9.299c0.996-0.664,2.173-1.359,3.248-2.226c0.283,1.382,0.469,2.745,0.518,4.057
			c0.474,12.848-7.237,24.348-7.237,24.348c-2.34,0.526-9.762-2.882-10.448-3.076c-0.685-0.192-6.94,4.539-6.94,4.539
			c3.817-0.269,14.682,5.65,15.955,5.019c3.423-0.06,11.739-13.829,12.72-27.867C32.469,49.11,25.264,34.276,22.137,28.286z
			 M7.3,104.015c0,1.282-1.672,5.168-2.07,6.368c-0.068,0.205-0.151,0.422-0.233,0.422c-0.082,0-0.151-0.136-0.219-0.395
			c-0.576-2.154-1.371-4.255-2.084-6.368c-0.068-0.205-0.137-0.518-0.411-0.518h-1.22l0.219,0.464
			c0.973,2.059,1.933,5.413,2.577,7.595l0.206,0.696H5.12l0.274-0.737c0.932-2.509,1.988-5.264,3.29-7.582l0.247-0.436h-1.7
			C7.272,103.674,7.3,103.838,7.3,104.015z M17.12,111.679v-3.668h0.343c0.85,0,2.399,0,2.878-0.777
			c-1.055,0.095-2.166,0.095-3.221,0.095v-3.259h1.275c0.809,0,1.549,0.095,2.029,0.505l-0.055-1.05h-4.784
			c0.301,0.464,0.301,1.172,0.301,1.786v5.128c0,0.613-0.041,1.323-0.343,1.786h3.962c0.494,0,0.946-0.041,1.316-0.068l0.247-1.255
			c-0.644,0.573-1.522,0.777-2.372,0.777H17.12z M33.985,110.956l-2.385-3.273c0.987-0.395,2.029-1.214,2.029-2.468
			c0-1.064-0.727-1.827-2.125-1.827c-1.069,0-2.166,0.137-3.317,0.137c0.302,0.464,0.302,1.172,0.302,1.786v5.046
			c0,0.586,0.027,1.241-0.371,1.868h1.906c-0.302-0.464-0.302-1.173-0.302-1.786v-2.455c0.795,0.068,0.891,0.3,1.467,1.118
			l1.673,2.373c0.302,0.436,0.562,0.75,1.151,0.75h1.124C34.575,111.706,34.383,111.488,33.985,110.956z M30.339,107.492
			c-0.206,0-0.412-0.013-0.617-0.041v-2.864c0-0.218,0.014-0.45,0.028-0.654h0.645c1.22,0.027,2.001,0.191,2.001,1.555
			C32.395,106.783,31.668,107.492,30.339,107.492z M46.177,104.07c0,0.409-0.302,1.077-0.617,1.623l-0.933,1.65
			c-0.136,0.246-0.233,0.478-0.315,0.478c-0.11,0-0.164-0.205-0.22-0.409c-0.26-0.969-0.891-2.523-1.426-3.368
			c-0.247-0.396-0.343-0.518-0.836-0.518h-1.178c0.562,0.504,1.261,1.568,1.809,2.686c0.549,1.118,0.96,2.032,0.96,2.987v1.241
			c0,0.613,0,1.323-0.302,1.786h1.837c-0.302-0.464-0.302-1.173-0.302-1.786v-0.573c0-1.8,0.521-2.468,1.481-3.927l1.563-2.414
			H45.97C46.121,103.688,46.177,103.865,46.177,104.07z M72.558,105.461c0-0.682-0.041-1.418,0.274-1.936h-1.397
			c-0.343,0-0.44,0.286-0.563,0.573l-2.371,5.686c-0.082,0.191-0.125,0.327-0.248,0.327c-0.11,0-0.151-0.232-0.22-0.436
			l-2.029-5.945c-0.054-0.177-0.261-0.204-0.425-0.204h-1.699c0.328,0.204,0.343,0.396,0.343,0.763v3.409
			c0,1.473-0.056,3.627-0.562,4.35l-0.123,0.177h1.63c-0.302-0.45-0.302-1.336-0.302-2.4l0.015-4.432c0-0.205,0-0.45,0.123-0.45
			s0.22,0.328,0.371,0.723l2.604,6.695l3.072-7.213c0.041-0.109,0.082-0.205,0.177-0.205c0.097,0,0.097,0.164,0.097,0.3v4.527
			c0,0.764,0,1.773-0.248,2.455h2.015c-0.302-0.546-0.356-1.173-0.425-1.786C72.489,108.801,72.558,107.097,72.558,105.461z
			 M84.585,103.524h-1.617l-0.013,0.368c0,1.118-2.824,6.968-3.606,7.95l-0.302,0.382h1.714c-0.028-0.177-0.041-0.341-0.041-0.518
			c0-0.777,0.616-2.113,1.207-3.3h3.083l1.496,3.818h1.479l-0.274-0.504C86.34,109.197,85.463,106.238,84.585,103.524z
			 M82.16,107.861l1.192-2.918c0.028-0.068,0.11-0.327,0.233-0.327s0.207,0.232,0.233,0.327l0.959,2.918H82.16z M96.627,103.524
			H94.79c0.3,0.464,0.3,1.172,0.3,1.786v5.128c0,0.613,0,1.323-0.3,1.786h1.837c-0.302-0.464-0.302-1.173-0.302-1.786v-5.128
			C96.325,104.697,96.325,103.988,96.627,103.524z M111.846,103.524h-1.425c0.192,0.354,0.328,0.818,0.328,1.746v4.813
			c0,0.123,0,0.259-0.095,0.259c-0.084,0-0.192-0.191-0.289-0.328l-2.727-3.832c-0.427-0.6-1.304-2.059-1.591-2.441
			c-0.164-0.218-0.289-0.218-0.549-0.218h-1.384c0.412,0.409,0.44,1.146,0.44,1.814v2.904c0,1.2,0,2.864-0.48,3.982h1.576
			c-0.438-1.023-0.41-2.4-0.41-3.491v-3.504c0-0.123,0.026-0.205,0.082-0.205c0.054,0,0.095,0.068,0.151,0.15l5.017,7.105h0.974
			c-0.015-0.409-0.028-0.818-0.028-1.268v-5.454C111.434,104.861,111.516,104.151,111.846,103.524z M120.417,105.352
			c0-1.023,0.713-1.5,1.673-1.5c0.918,0,1.289,0.164,1.906,0.805v-1.268c-0.699,0-1.397-0.082-2.111-0.082
			c-1.453,0-2.755,0.777-2.755,2.359c0,2.522,3.919,2.236,3.919,4.527c0,1.091-0.781,1.705-1.822,1.705
			c-1.44,0-2.029-0.805-2.44-1.378v1.446c0.63,0.259,1.686,0.477,2.358,0.477c1.535,0,3.193-0.955,3.193-2.646
			C124.338,107.193,120.417,107.452,120.417,105.352z M131.17,104.506c0.343-0.259,0.658-0.3,0.972-0.3h1.824v6.232
			c0,0.613,0,1.323-0.302,1.786h1.837c-0.302-0.464-0.302-1.173-0.302-1.786v-6.232h1.509c0.562,0,1.399-0.095,1.632-0.682h-6.896
			L131.17,104.506z M150.982,110.956l-2.384-3.273c0.987-0.395,2.029-1.214,2.029-2.468c0-1.064-0.727-1.827-2.125-1.827
			c-1.069,0-2.165,0.137-3.318,0.137c0.302,0.464,0.302,1.172,0.302,1.786v5.046c0,0.586,0.028,1.241-0.369,1.868h1.906
			c-0.302-0.464-0.302-1.173-0.302-1.786v-2.455c0.795,0.068,0.891,0.3,1.466,1.118l1.673,2.373c0.302,0.436,0.562,0.75,1.151,0.75
			h1.125C151.572,111.706,151.381,111.488,150.982,110.956z M147.336,107.492c-0.207,0-0.411-0.013-0.617-0.041v-2.864
			c0-0.218,0.013-0.45,0.026-0.654h0.644c1.22,0.027,2.002,0.191,2.002,1.555C149.393,106.783,148.666,107.492,147.336,107.492z
			 M160.144,111.679v-3.668h0.343c0.851,0,2.399,0,2.88-0.777c-1.056,0.095-2.166,0.095-3.222,0.095v-3.259h1.276
			c0.809,0,1.548,0.095,2.029,0.505l-0.054-1.05h-4.785c0.302,0.464,0.302,1.172,0.302,1.786v5.128c0,0.613-0.041,1.323-0.343,1.786
			h3.962c0.494,0,0.946-0.041,1.315-0.068l0.248-1.255c-0.644,0.573-1.522,0.777-2.371,0.777H160.144z M175.558,103.524h-1.619
			l-0.013,0.368c0,1.118-2.824,6.968-3.604,7.95l-0.302,0.382h1.714c-0.028-0.177-0.041-0.341-0.041-0.518
			c0-0.777,0.617-2.113,1.205-3.3h3.085l1.494,3.818h1.481l-0.274-0.504C177.313,109.197,176.435,106.238,175.558,103.524z
			 M173.131,107.861l1.194-2.918c0.026-0.068,0.108-0.327,0.233-0.327c0.123,0,0.205,0.232,0.233,0.327l0.959,2.918H173.131z
			 M194.384,105.461c0-0.682-0.043-1.418,0.274-1.936h-1.399c-0.343,0-0.438,0.286-0.563,0.573l-2.371,5.686
			c-0.082,0.191-0.123,0.327-0.246,0.327c-0.11,0-0.151-0.232-0.22-0.436l-2.029-5.945c-0.056-0.177-0.261-0.204-0.425-0.204h-1.701
			c0.33,0.204,0.343,0.396,0.343,0.763v3.409c0,1.473-0.054,3.627-0.562,4.35l-0.123,0.177h1.632c-0.302-0.45-0.302-1.336-0.302-2.4
			l0.013-4.432c0-0.205,0-0.45,0.125-0.45c0.123,0,0.218,0.328,0.369,0.723l2.606,6.695l3.07-7.213
			c0.041-0.109,0.082-0.205,0.179-0.205c0.095,0,0.095,0.164,0.095,0.3v4.527c0,0.764,0,1.773-0.246,2.455h2.015
			c-0.302-0.546-0.357-1.173-0.426-1.786C194.315,108.801,194.384,107.097,194.384,105.461z M212.912,105.352
			c0-1.023,0.713-1.5,1.673-1.5c0.918,0,1.289,0.164,1.906,0.805v-1.268c-0.7,0-1.399-0.082-2.112-0.082
			c-1.453,0-2.755,0.777-2.755,2.359c0,2.522,3.921,2.236,3.921,4.527c0,1.091-0.781,1.705-1.824,1.705
			c-1.44,0-2.029-0.805-2.44-1.378v1.446c0.631,0.259,1.686,0.477,2.358,0.477c1.535,0,3.195-0.955,3.195-2.646
			C216.833,107.193,212.912,107.452,212.912,105.352z M223.663,104.506c0.343-0.259,0.658-0.3,0.972-0.3h1.824v6.232
			c0,0.613,0,1.323-0.302,1.786h1.837c-0.302-0.464-0.302-1.173-0.302-1.786v-6.232h1.509c0.562,0,1.399-0.095,1.632-0.682h-6.896
			L223.663,104.506z M245.121,103.524h-1.837c0.302,0.477,0.302,1.186,0.302,1.8v2.141c0,0.518-0.041,1.05-0.056,1.568
			c-0.041,1.623-0.535,2.618-2.124,2.618c-1.55,0-2.153-0.886-2.194-2.346v-3.982c0-0.614,0-1.323,0.302-1.8h-1.837
			c0.302,0.477,0.302,1.186,0.302,1.8v4.8c0.041,1.677,1.097,2.318,2.686,2.318c1.276,0,2.112-0.491,2.647-0.941
			c0.082-0.068,0.136-0.15,0.164-0.15c0.041,0,0.069,0.013,0.069,0.055l-0.056,0.9l1.632-0.082c-0.302-0.45-0.302-1.159-0.302-1.773
			v-5.127C244.82,104.711,244.82,104.001,245.121,103.524z M256.504,103.388c-1.397,0-2.783,0.137-4.167,0.137
			c0.302,0.464,0.302,1.172,0.302,1.786v5.128c0,0.613,0,1.323-0.302,1.786c0.959,0,1.919,0.055,3.304,0.055
			c2.604,0,4.715-1.691,4.715-4.732C260.356,105.106,258.793,103.388,256.504,103.388z M255.627,111.733
			c-1.479,0-1.755-0.055-1.755-1.036v-6.014c0-0.218,0.015-0.436,0.015-0.641c0.302-0.055,0.795-0.109,1.302-0.109
			c2.453,0,3.742,1.487,3.742,3.845C258.931,110.015,258.067,111.733,255.627,111.733z M269.999,103.524h-1.837
			c0.3,0.464,0.3,1.172,0.3,1.786v5.128c0,0.613,0,1.323-0.3,1.786h1.837c-0.302-0.464-0.302-1.173-0.302-1.786v-5.128
			C269.697,104.697,269.697,103.988,269.999,103.524z M281.695,103.306c-2.852,0-4.359,2.155-4.359,4.745
			c0,2.427,1.261,4.391,4.139,4.391c2.852,0,4.361-2.155,4.361-4.745C285.835,105.27,284.573,103.306,281.695,103.306z
			 M281.585,111.843c-2.207,0-2.824-2.373-2.824-4.173c0-1.964,0.849-3.764,2.824-3.764c2.207,0,2.824,2.373,2.824,4.173
			C284.409,110.042,283.559,111.843,281.585,111.843z"/>
	</g>
</g>
</svg>
