<?xml version="1.0" encoding="utf-8"?>
<!-- Generator: Adobe Illustrator 17.0.0, SVG Export Plug-In . SVG Version: 6.00 Build 0)  -->
<!DOCTYPE svg PUBLIC "-//W3C//DTD SVG 1.1//EN" "http://www.w3.org/Graphics/SVG/1.1/DTD/svg11.dtd">
<svg version="1.1" id="Layer_1" xmlns="http://www.w3.org/2000/svg" xmlns:xlink="http://www.w3.org/1999/xlink" x="0px" y="0px"
	 width="28px" height="14px" viewBox="-7 0 28 14" enable-background="new -7 0 28 14" xml:space="preserve">
<g>
	<rect x="-7" fill="none" width="14" height="14"/>
	<g>
		<g opacity="0.5">
			<g>
				<path fill="#FFFFFF" d="M0,0c-3.865,0-6.999,3.134-6.999,7S-3.865,14,0,14c3.866,0,6.999-3.134,6.999-7C6.999,3.134,3.866,0,0,0
					z M0,12.641c-3.117,0-5.64-2.523-5.64-5.641S-3.117,1.359,0,1.359S5.64,3.882,5.64,7C5.64,10.118,3.118,12.641,0,12.641z"/>
			</g>
		</g>
		<path opacity="0.8" fill="#FFFFFF" enable-background="new    " d="M0.438,10.653V7.32h1.166l0.175-1.299H0.438V5.193
			c0-0.376,0.109-0.632,0.671-0.632h0.717V3.399c-0.124-0.016-0.55-0.051-1.045-0.051c-1.034,0-1.742,0.605-1.742,1.716v0.958H-2.13
			V7.32h1.169v3.332L0.438,10.653L0.438,10.653z"/>
	</g>
</g>
<g>
	<rect x="7" fill="none" width="14" height="14"/>
	<g>
		<g opacity="0.5">
			<g>
				<path d="M14,0c-3.865,0-6.999,3.134-6.999,7s3.134,7,6.999,7c3.866,0,6.999-3.134,6.999-7S17.866,0,14,0z M14,12.641
					c-3.117,0-5.64-2.523-5.64-5.641S10.883,1.359,14,1.359S19.64,3.882,19.64,7C19.64,10.118,17.118,12.641,14,12.641z"/>
			</g>
		</g>
		<path opacity="0.8" d="M14.438,10.653V7.32h1.166l0.175-1.299h-1.341V5.193c0-0.376,0.109-0.632,0.671-0.632h0.717V3.399
			c-0.124-0.016-0.55-0.051-1.045-0.051c-1.034,0-1.742,0.605-1.742,1.716v0.958H11.87V7.32h1.169v3.332L14.438,10.653
			L14.438,10.653z"/>
	</g>
</g>
</svg>
