<?xml version="1.0" encoding="utf-8"?>
<!-- Generator: Adobe Illustrator 17.0.0, SVG Export Plug-In . SVG Version: 6.00 Build 0)  -->
<!DOCTYPE svg PUBLIC "-//W3C//DTD SVG 1.1//EN" "http://www.w3.org/Graphics/SVG/1.1/DTD/svg11.dtd">
<svg version="1.1" id="Layer_1" xmlns="http://www.w3.org/2000/svg" xmlns:xlink="http://www.w3.org/1999/xlink" x="0px" y="0px"
	 width="124px" height="98px" viewBox="0 -24.5 124 98" enable-background="new 0 -24.5 124 98" xml:space="preserve">
<g>
	<g>
		<g>
			<path fill="#FFFFFF" d="M12.073-13.188c0.245,0.031,0.398-0.369,0.245-0.523c-1.012-1.046-2.238-2.062-3.403-2.892
				C7.106-13.249,4.01-10.018,0.852-7.71l0.245,0.4c3.281-1.077,6.408-2.923,9.167-5.293C10.877-13.127,11.521-13.219,12.073-13.188
				z M17.714-14.665c0.245-0.123,0.491-0.277,0.705-0.492c0.092-0.123,0.061-0.431-0.061-0.462
				c-1.318-0.462-2.821-0.831-4.262-1.139c0.092,0.708,0.123,1.446,0.123,2.246v3.108c0,0.892,0.245,1.569,0.705,2.031
				c0.491,0.492,1.196,0.739,2.085,0.8c2.023,0.092,4.016,0.092,6.07,0.031c0.797,0,1.809-0.185,2.391-0.585
				c0.245-0.154,0.245-0.677,0.123-0.893c-0.398-0.615-0.981-1.384-1.533-1.908c-0.153-0.154-0.337-0.154-0.521-0.062
				c-0.582,0.369-1.288,0.554-1.962,0.616c-1.165,0.061-2.514,0.031-3.648,0c-0.307-0.031-0.521-0.277-0.521-0.616v-2.246
				C17.407-14.45,17.53-14.573,17.714-14.665z M2.492-13.545c0.721-0.126,1.38-0.535,1.82-1.133
				c0.628-0.882,0.753-2.047,0.784-3.181h17.696c-0.408,1.197-0.91,2.456-1.443,3.59l0.377,0.283
				c0.816-0.63,1.788-1.417,2.573-2.141c0.377-0.346,1.004-0.566,1.443-0.598c0.47-0.031,1.004-0.031,1.38-0.095
				c0.251-0.032,0.439-0.504,0.22-0.724c-0.816-0.913-1.789-1.827-2.761-2.614c-0.188-0.157-0.408-0.189-0.596,0
				c-0.439,0.378-0.973,0.819-1.412,1.323h-8.095c0.565-0.473,0.878-1.008,1.004-1.732c0.125-0.756-0.032-1.574-0.69-2.015
				c-1.349-0.85-2.918-1.197-4.518-1.449l-0.283,0.378c1.129,0.787,1.851,2.078,2.196,3.401c0.126,0.535,0.408,0.976,0.753,1.417
				H4.971c-0.031-0.787-0.157-1.638-0.314-2.236l-0.47,0.031c-0.252,1.858-1.036,3.275-2.573,4.315
				c-0.69,0.472-1.067,0.945-1.192,1.385c-0.188,0.567,0,1.102,0.408,1.417C1.3-13.545,1.927-13.45,2.492-13.545z M1.426,2.578
				C1.928,2.389,2.524,2.295,3.12,2.295h23.406c0.188,0,0.314-0.315,0.157-0.504c-0.722-0.851-1.82-1.827-2.824-2.582
				c-0.125-0.126-0.439-0.094-0.533,0.032c-0.471,0.503-1.286,1.448-1.757,2.078h-6.338v-6.361h8.063
				c0.251,0,0.345-0.315,0.157-0.503c-0.753-0.787-1.695-1.575-2.573-2.173c-0.157-0.126-0.408-0.095-0.565,0.063
				c-0.471,0.441-1.318,1.228-1.726,1.669H4.343l0.878,1.259c0.534-0.189,1.255-0.315,1.851-0.315h4.738v6.361H0.61L1.426,2.578z
				 M66.646-19.434c0.345,0.157,0.784,0.126,1.129-0.157c0.596-0.472,0.91-1.134,0.879-1.732c-0.032-0.724-0.502-1.449-1.224-1.795
				c-1.192-0.567-2.51-0.819-3.451-0.819l-0.188,0.284c1.161,1.133,1.631,1.889,1.945,3.054
				C65.862-20.063,66.207-19.622,66.646-19.434z M69.376-8.318c-0.157-0.094-0.283-0.094-0.44,0.032
				c-0.282,0.315-0.753,0.819-1.035,1.228h-3.012c-1.036-0.472-2.353-1.071-3.263-1.449c0.094,0.945,0.063,2.205,0.063,2.897v6.581
				c0,0.44-0.031,1.323-0.126,2.173c0,0.284,0.282,0.598,0.502,0.598c0.659-0.063,1.82-0.346,2.416-0.63
				c0.251-0.094,0.345-0.346,0.345-0.693V0.404h3.201v2.614c0,0.252,0.251,0.504,0.471,0.504c0.722,0,1.788-0.221,2.385-0.535
				c0.188-0.127,0.345-0.473,0.314-0.819c-0.031-0.693-0.063-2.614-0.063-3.307v-3.495c0-0.378,0.345-0.819,0.816-0.976
				c0.22-0.095,0.314-0.441,0.157-0.567C71.54-6.711,70.128-7.814,69.376-8.318z M68.027-0.57h-3.201v-5.511h3.201V-0.57z
				 M62.567-17.985h10.604c0.189,0,0.346-0.346,0.22-0.504c-0.722-0.787-1.882-1.952-2.51-2.487
				c-0.157-0.126-0.345-0.095-0.502,0.031c-0.502,0.504-1.255,1.386-1.663,1.984h-8.534l0.91,1.197
				C61.469-17.89,62.002-17.985,62.567-17.985z M75.023-20.221h7.468v8.062h-4.989c-1.192-0.567-2.793-1.291-3.703-1.669
				c0.094,0.913,0.126,1.984,0.126,2.96V0.5c0,0.692,0.251,1.322,0.659,1.826c0.439,0.535,1.067,0.882,1.819,0.945
				c2.573,0.189,5.93,0.347,8.596,0.063c0.753-0.094,1.381-0.441,1.883-0.976c0.534-0.535,0.879-1.26,1.098-2.047
				c-0.502-0.158-0.941-0.472-1.255-0.881c-0.314-0.41-0.502-0.882-0.534-1.386c-0.094-1.259-0.188-2.488-0.125-3.873h-0.439
				c-0.313,1.637-1.004,4.346-1.474,5.448c-0.189,0.409-0.534,0.724-1.036,0.756c-1.506,0.094-3.42,0.063-5.114-0.063
				c-0.565-0.031-0.816-0.315-0.816-0.724v-10.77h5.303v2.204c0,0.22,0.156,0.409,0.439,0.441c0.628,0.063,2.102-0.252,2.447-0.441
				c0.282-0.126,0.439-0.441,0.439-0.661c-0.031-0.567-0.063-1.606-0.063-2.299v-6.992c0-0.315,0.533-0.819,0.973-1.039
				c0.156-0.063,0.188-0.378,0.062-0.504c-0.814-0.755-1.787-1.574-2.571-2.141c-0.157-0.095-0.345-0.095-0.502,0.031
				c-0.502,0.41-0.878,0.882-1.255,1.386h-9.821l1.035,1.259C74.019-20.095,74.615-20.221,75.023-20.221z M123.648-15.37
				c-0.628-0.819-1.474-1.686-2.322-2.347c-0.157-0.126-0.408-0.105-0.502-0.01c-0.471,0.567-1.067,1.372-1.412,1.817h-3.42
				c0.69-0.444,1.318-1.021,1.945-1.62c0.377-0.409,0.941-0.7,1.412-0.7c0.189,0,0.282-0.335,0.094-0.461
				c-0.44-0.252-1.318-0.709-1.977-1.154h5.271c0.157,0,0.282-0.267,0.157-0.424c-0.721-0.851-1.568-1.567-2.384-2.26
				c-0.157-0.125-0.408-0.126-0.565,0.032c-0.314,0.378-1.004,1.32-1.38,1.764h-4.078c0.471-0.444,0.627-1.035,0.471-1.602
				c-0.126-0.503-0.471-0.958-0.941-1.21c-1.004-0.472-2.228-0.542-3.42-0.51l-0.095,0.307c1.004,0.787,1.663,1.937,1.945,3.016
				h-7.248l0.815,1.153c0.314-0.126,0.753-0.264,1.255-0.264h8.628c-0.314,1.332-0.879,2.855-1.381,3.934h-2.573
				c0.313-0.444,0.502-0.927,0.439-1.368c-0.031-0.377-0.251-0.763-0.69-1.109c-0.878-0.662-2.133-1.011-3.576-1.137l-0.188,0.327
				c0.973,0.819,1.537,2.209,1.851,3.288h-3.891c-0.69-1.079-1.82-1.854-3.148-2.452v-3.247c0-0.346,0.382-0.818,0.821-1.007
				c0.189-0.063,0.113-0.504-0.076-0.567c-1.286-0.473-2.722-0.788-4.071-1.071c0.094,1.008,0.039,2.519,0.039,3.307v17.729
				c0,1.637,0.018,4.849-0.077,6.424c0,0.409,0.213,0.63,0.558,0.693c0.533,0.126,1.612-0.126,2.271-0.472
				c0.314-0.189,0.566-0.536,0.566-0.756c-0.063-1.071-0.031-4.062-0.031-5.133v-15.021c0.442,0.536,0.664,1.669,0.695,2.834
				c0,0.598,0.332,1.228,0.771,1.385c0.22,0.126,0.527,0.065,0.872-0.187c0.565-0.347,0.903-0.876,0.966-1.573h17.444
				C123.648-15.022,123.742-15.212,123.648-15.37z M118-0.729c-0.377-0.566-0.534-1.354-0.502-2.425l-0.439-0.031
				c-0.125,0.756-0.439,2.11-0.659,2.803c-0.125,0.409-0.502,0.693-0.91,0.724c-1.161,0.094-2.373,0.094-3.502,0
				c-0.22-0.032-0.459-0.284-0.459-0.504v-2.236c0-0.377,0.334-0.755,0.679-0.881c0.219-0.063,0.198-0.473-0.052-0.567
				c-1.161-0.378-2.474-0.693-3.76-0.976c0.062,0.63,0.099,1.26,0.099,1.889v3.779c0,0.598,0.172,1.165,0.549,1.606
				c0.345,0.441,0.855,0.724,1.514,0.787c2.008,0.126,4.099,0.158,6.138,0.063c0.784-0.031,1.437-0.346,1.876-0.787
				c0.533-0.567,0.876-1.354,1.095-2.173C118.976,0.153,118.377-0.161,118-0.729z M106.956-4.046h-0.314
				c-0.565,1.777-1.6,2.997-2.792,3.879c-0.502,0.378-0.722,0.963-0.628,1.467c0.063,0.472,0.408,0.891,1.035,1.048
				c0.722,0.22,1.412,0.036,1.945-0.373c0.471-0.347,0.816-0.885,0.973-1.452C107.584-0.893,107.333-2.713,106.956-4.046z
				 M118.408-3.657c0.973,1.417,1.569,2.991,1.789,4.629c0.125,0.756,0.408,1.417,0.879,1.543c0.314,0.126,0.722,0,1.192-0.41
				c0.627-0.535,0.941-1.102,0.973-1.7c0-0.567-0.22-1.134-0.628-1.732c-0.91-1.197-2.447-2.078-3.922-2.708L118.408-3.657z
				 M97.418-10.68c0.596-0.252,1.098-0.818,1.318-1.511c0.533-1.732,0.22-4.094-0.22-5.92l-0.408,0.094
				c-0.188,2.047-0.878,3.559-2.039,4.818c-0.314,0.346-0.596,0.882-0.628,1.417c-0.031,0.378,0.094,0.693,0.408,0.945
				C96.383-10.49,96.916-10.49,97.418-10.68z M118.658-14.427c-0.157-0.063-0.345-0.134-0.439-0.008
				c-0.377,0.346-0.753,0.745-1.067,1.189h-7.31c-0.816-0.19-2.549-1-3.458-1.284c0.063,0.819,0.087,2.212,0.087,2.937v3.558
				c0,0.724-0.055,1.953-0.055,2.645c-0.032,0.315,0.16,0.472,0.443,0.536c0.596,0.094,1.947-0.297,2.324-0.581
				c0.251-0.157,0.441-0.325,0.41-0.769h7.689v0.846c0,0.315,0.203,0.441,0.486,0.472c0.69,0.094,1.937-0.252,2.407-0.63
				c0.188-0.126,0.275-0.346,0.243-0.598c-0.063-0.756-0.102-1.48-0.102-2.236v-2.645c0-0.504,0.38-1.007,0.914-1.165
				c0.157-0.063,0.159-0.41,0.033-0.503C120.446-13.293,119.506-13.891,118.658-14.427z M117.281-7.091h-7.712v-5.076h7.712V-7.091z
				 M54.098-18.521c-0.188-0.126-0.376-0.067-0.502,0.09c-0.44,0.472-0.973,0.998-1.381,1.696h-4.361
				c0.659-1.332,1.255-2.735,1.82-4.12c0.219-0.535,0.722-0.784,1.192-0.88c0.22-0.063,0.251-0.518,0.032-0.644
				c-1.224-0.661-2.855-1.362-4.361-1.834c-0.188,5.259-2.008,9.475-4.455,14.608l0.345,0.233c1.914-2.047,3.514-4.064,4.926-6.538
				h5.239c-0.094,4.187-0.282,10-0.816,14.881c-0.063,0.378-0.502,0.796-0.878,0.764c-1.977-0.063-3.953-0.216-5.899-0.436
				l-0.063,0.38c1.004,0.378,2.51,0.82,3.388,1.45c0.879,0.661,1.443,1.669,1.569,2.709c1.569-0.189,2.761-0.472,3.639-1.165
				c0.785-0.661,1.318-1.669,1.475-3.275c0.407-4.755,0.596-9.951,0.753-14.391c0.031-0.41,0.502-0.724,0.815-0.945
				c0.22-0.126,0.22-0.441,0.032-0.63C55.824-17.293,54.945-17.922,54.098-18.521z M39.32,1.676c0.816-0.063,1.82-0.415,2.353-1.013
				c0.251-0.283,0.316-0.538,0.316-0.917c-0.063-1.448-0.186-3.089-0.186-4.537v-10.234c0-0.283,0.186-0.504,0.375-0.63
				c0.22-0.125,0.422-0.252,0.611-0.409c0.157-0.157,0.321-0.472,0.102-0.661c-0.816-0.756-1.722-1.354-2.632-1.953
				c-0.189-0.094-0.439-0.132-0.595,0.057c-0.251,0.409-0.908,1.187-1.19,1.631h-2.949c1.004-1.079,1.851-2.388,2.667-3.71
				c0.314-0.504,0.91-0.753,1.475-0.816c0.188,0,0.345-0.471,0.094-0.628c-1.412-0.882-3.2-1.448-4.8-1.857
				c0.314,1.889-0.094,5.259-0.722,6.96c-1.129-0.661-2.47-1.291-3.662-1.826c0.125,0.409,0.165,1.197,0.165,1.606v15.367
				c0,0.882,0.054,2.614,0.023,3.622c0,0.409,0.278,0.536,0.592,0.536c0.847-0.032,1.739-0.221,2.367-0.693
				c0.251-0.189,0.352-0.545,0.352-0.86c-0.031-0.535-0.025-1.204,0.007-1.457h4.675c0.031,0.444,0.031,1.364,0,1.899
				C38.724,1.498,39.007,1.676,39.32,1.676z M38.706-1.825h-4.615V-15.91h4.615V-1.825z M86.385,19.179
				c-0.019-0.182-0.016-0.628-0.016-1.339v-2.63c0-0.015-0.055-0.531-0.063-0.521c-0.135-0.499-0.382-0.874-0.723-1.123
				c-0.341-0.25-0.788-0.375-1.334-0.375c-0.482,0-0.934,0.117-1.353,0.35c-0.419,0.233-0.811,0.562-1.173,1.028
				c0-0.57-0.08-0.978-0.236-1.422h-0.081c-0.503,0.254-1.105,0.333-1.864,0.409v0.375c0.379,0,0.61,0.044,0.753,0.13
				c0.143,0.087,0.244,0.216,0.268,0.387c0.024,0.171,0.053,0.636,0.053,1.396v1.994c0,0.803-0.043,1.283-0.076,1.441
				c-0.032,0.157-0.113,0.276-0.256,0.354c-0.143,0.079-0.427,0.118-0.743,0.118v0.375h3.224v-0.375
				c-0.316,0-0.621-0.046-0.761-0.138c-0.141-0.092-0.209-0.228-0.23-0.407c-0.022-0.179-0.02-0.635-0.02-1.368v-2.776
				c0.379-0.434,0.701-0.76,1.05-0.977c0.349-0.217,0.682-0.326,1.018-0.326c0.346,0,0.631,0.094,0.864,0.281
				c0.232,0.187,0.369,0.412,0.415,0.676c0.046,0.263,0.067,0.688,0.067,1.274v1.848c0,0.809-0.017,1.292-0.052,1.449
				s-0.123,0.274-0.266,0.35s-0.377,0.114-0.756,0.114v0.375h3.224v-0.375c-0.316,0-0.585-0.05-0.717-0.15
				C86.467,19.502,86.404,19.361,86.385,19.179z M91.011,19.256c-0.03-0.168-0.027-0.64-0.027-1.416v-2.003
				c0-0.678-0.058-1.169-0.134-1.473c-0.076-0.304-0.302-0.575-0.659-0.814c-0.357-0.239-0.796-0.358-1.31-0.358
				c-0.378,0-0.742,0.089-1.121,0.266v0.471c0.253-0.106,0.468-0.159,0.702-0.159c0.346,0,0.627,0.082,0.843,0.244
				c0.216,0.163,0.349,0.358,0.401,0.586c0.051,0.228,0.076,0.567,0.076,1.017v2.222c0,0.798-0.016,1.277-0.048,1.437
				s-0.099,0.28-0.242,0.358c-0.143,0.079-0.405,0.118-0.721,0.118v0.375h3.287v-0.375c-0.379,0-0.662-0.041-0.805-0.122
				C91.11,19.549,91.041,19.424,91.011,19.256z M32.63,19.826c-0.2,0-0.388-0.065-0.564-0.196c-0.176-0.13-0.291-0.302-0.345-0.517
				c-0.054-0.214-0.081-0.631-0.081-1.25v-4.029h2.003V13.46H31.64v-2.092h-0.26c-0.097,0.657-0.322,1.167-0.673,1.53
				c-0.351,0.364-0.749,0.551-1.192,0.562v0.374h0.965v3.777c0,0.776,0.036,1.319,0.109,1.628s0.257,0.579,0.551,0.81
				c0.295,0.231,0.637,0.346,1.026,0.346c0.335,0,0.666-0.091,0.994-0.273c0.327-0.182,0.574-0.452,0.742-0.81l-0.259-0.155
				C33.357,19.603,33.019,19.826,32.63,19.826z M36.921,19.606c-0.135-0.098-0.214-0.239-0.235-0.423
				c-0.022-0.184-0.033-0.632-0.033-1.343v-4.648h-0.178c-0.53,0.19-1.276,0.334-2.238,0.431v0.375h0.219
				c0.303,0,0.515,0.022,0.637,0.065c0.122,0.044,0.219,0.152,0.292,0.326c0.073,0.174,0.109,0.651,0.109,1.433v2.019
				c0,0.744-0.009,1.192-0.028,1.347s-0.086,0.288-0.203,0.399c-0.116,0.111-0.366,0.167-0.75,0.167h-0.276v0.374h3.577v-0.374
				h-0.17C37.297,19.753,37.056,19.704,36.921,19.606z M36.524,9.413c0.162-0.168,0.243-0.372,0.243-0.611
				c0-0.233-0.081-0.434-0.243-0.602c-0.162-0.168-0.36-0.253-0.592-0.253S35.501,8.031,35.336,8.2
				c-0.165,0.168-0.247,0.369-0.247,0.602c0,0.239,0.082,0.442,0.247,0.611c0.165,0.168,0.364,0.252,0.596,0.252
				C36.164,9.665,36.361,9.581,36.524,9.413z M96.621,13.192c-0.995,0-1.833,0.343-2.514,1.03s-1.022,1.54-1.022,2.56
				c0,1.102,0.345,1.979,1.034,2.633c0.689,0.654,1.523,0.981,2.502,0.981s1.814-0.322,2.506-0.965
				c0.692-0.643,1.038-1.526,1.038-2.65c0-1.015-0.34-1.867-1.022-2.556C98.462,13.536,97.621,13.192,96.621,13.192z M98.247,19.309
				c-0.376,0.475-0.918,0.712-1.626,0.712c-0.692,0-1.23-0.238-1.614-0.712c-0.384-0.475-0.576-1.304-0.576-2.487
				c0-1.178,0.188-2.015,0.564-2.511c0.376-0.497,0.918-0.745,1.626-0.745c0.714,0,1.257,0.25,1.63,0.749s0.56,1.335,0.56,2.507
				C98.811,18.005,98.623,18.834,98.247,19.309z M105.697,13.192c-0.395,0-0.799,0.163-1.212,0.488
				c-0.414,0.326-0.712,0.73-0.896,1.213c-0.016-0.705-0.103-1.272-0.26-1.701c-0.822,0.26-1.487,0.421-1.995,0.48v0.366h0.17
				c0.346,0,0.587,0.05,0.722,0.151c0.135,0.1,0.212,0.241,0.231,0.423c0.019,0.182,0.029,0.631,0.029,1.347v1.88
				c0,0.771-0.013,1.237-0.041,1.4c-0.027,0.163-0.109,0.289-0.247,0.378c-0.138,0.09-0.369,0.134-0.693,0.134h-0.17v0.374h3.528
				v-0.374h-0.227c-0.346,0-0.587-0.049-0.722-0.146c-0.135-0.098-0.212-0.239-0.231-0.423c-0.019-0.184-0.029-0.632-0.029-1.343
				v-1.188c0-0.597,0.046-1.066,0.138-1.408c0.092-0.342,0.3-0.672,0.624-0.989c0.325-0.317,0.603-0.476,0.835-0.476
				c0.195,0,0.341,0.136,0.438,0.407c0.141,0.402,0.346,0.602,0.617,0.602c0.151,0,0.28-0.057,0.385-0.171
				c0.105-0.114,0.158-0.25,0.158-0.407c0-0.233-0.103-0.461-0.308-0.684C106.335,13.303,106.054,13.192,105.697,13.192z
				 M109.875,19.606c-0.135-0.098-0.214-0.239-0.235-0.423c-0.022-0.184-0.032-0.632-0.032-1.343v-4.648h-0.178
				c-0.53,0.19-1.276,0.334-2.238,0.431v0.375h0.219c0.303,0,0.515,0.022,0.637,0.065c0.122,0.044,0.219,0.152,0.292,0.326
				s0.109,0.651,0.109,1.433v2.019c0,0.744-0.01,1.192-0.028,1.347c-0.019,0.155-0.086,0.288-0.203,0.399
				c-0.116,0.111-0.366,0.167-0.75,0.167h-0.276v0.374h3.577v-0.374h-0.17C110.251,19.753,110.01,19.704,109.875,19.606z
				 M108.886,9.665c0.232,0,0.43-0.084,0.592-0.252s0.243-0.372,0.243-0.611c0-0.233-0.081-0.434-0.243-0.602
				c-0.162-0.168-0.36-0.253-0.592-0.253c-0.233,0-0.431,0.084-0.596,0.253c-0.165,0.168-0.248,0.369-0.248,0.602
				c0,0.239,0.083,0.442,0.248,0.611C108.455,9.581,108.653,9.665,108.886,9.665z M121.443,16.057
				c-0.611-0.277-1.025-0.524-1.241-0.741c-0.222-0.212-0.333-0.464-0.333-0.757c0-0.266,0.1-0.499,0.3-0.7
				c0.2-0.201,0.462-0.301,0.787-0.301c0.422,0,0.788,0.178,1.099,0.533s0.52,0.78,0.629,1.274h0.3v-2.06h-0.3
				c-0.13,0.315-0.235,0.513-0.316,0.594c-0.379-0.472-0.857-0.708-1.436-0.708c-0.568,0-1.008,0.199-1.322,0.598
				c-0.313,0.399-0.47,0.818-0.47,1.258c0,0.461,0.146,0.849,0.438,1.164c0.292,0.32,0.773,0.646,1.444,0.977
				c0.638,0.315,1.068,0.583,1.289,0.806c0.216,0.223,0.324,0.508,0.324,0.855c0,0.298-0.101,0.573-0.304,0.822
				c-0.203,0.25-0.51,0.375-0.921,0.375c-0.946,0-1.603-0.632-1.971-1.897h-0.317v2.19h0.317c0.092-0.304,0.211-0.537,0.357-0.7
				c0.476,0.505,1.019,0.757,1.63,0.757c0.579,0,1.059-0.182,1.44-0.545c0.381-0.364,0.572-0.836,0.572-1.416
				c0-0.369-0.103-0.754-0.308-1.156C122.924,16.882,122.362,16.475,121.443,16.057z M1.726,15.369h0.023l0.024-0.253
				C1.755,15.197,1.739,15.306,1.726,15.369z M3.495,15.369v0.317h2.829c-0.027-0.571-0.279-1.18-0.754-1.711
				c-0.476-0.531-1.149-0.79-2.019-0.79c-0.925,0-1.695,0.352-2.312,1.05c-0.616,0.697-0.924,1.574-0.924,2.627
				c0,0.744,0.16,1.377,0.479,1.897c0.319,0.521,0.729,0.924,1.229,1.209s1.031,0.427,1.594,0.427c0.606,0,1.165-0.168,1.679-0.48
				s0.857-0.739,1.03-1.311H5.935c-0.411,0.888-1.109,1.339-2.093,1.339c-0.725,0-1.269-0.288-1.634-0.877s-0.724-1.543-0.675-2.604
				c0.034-0.73,0.095-0.95,0.193-1.328c0.25-0.971,0.846-1.575,1.76-1.575c0.406,0,0.747,0.126,1.026,0.39
				C4.79,14.212,4.93,14.57,4.93,15.047c0,0.098-0.008,0.194-0.024,0.321H3.495V15.369z M41.993,15.369v0.317h2.821
				c-0.027-0.571-0.278-1.18-0.754-1.711s-1.149-0.79-2.019-0.79c-0.925,0-1.695,0.352-2.312,1.05
				c-0.616,0.697-0.924,1.574-0.924,2.627c0,0.744,0.159,1.377,0.479,1.897c0.319,0.521,0.729,0.924,1.229,1.209
				s1.031,0.427,1.594,0.427c0.606,0,1.165-0.168,1.679-0.48c0.513-0.312,0.857-0.739,1.03-1.311h-0.389
				c-0.411,0.888-1.109,1.339-2.093,1.339c-0.724,0-1.269-0.288-1.634-0.877c-0.365-0.589-0.724-1.543-0.675-2.604
				c0.034-0.73,0.095-0.95,0.193-1.328c0.25-0.971,0.846-1.575,1.76-1.575c0.406,0,0.747,0.126,1.026,0.39
				c0.278,0.263,0.418,0.621,0.418,1.098c0,0.098-0.008,0.194-0.024,0.321h-1.405V15.369z M75.56,15.369v0.317h2.852
				c-0.027-0.571-0.279-1.18-0.754-1.711c-0.476-0.531-1.149-0.79-2.019-0.79c-0.925,0-1.695,0.352-2.312,1.05
				c-0.616,0.697-0.925,1.574-0.925,2.627c0,0.744,0.16,1.377,0.479,1.897c0.319,0.521,0.729,0.924,1.229,1.209
				s1.031,0.427,1.594,0.427c0.606,0,1.165-0.168,1.679-0.48s0.857-0.739,1.03-1.311h-0.389c-0.411,0.888-1.109,1.339-2.092,1.339
				c-0.725,0-1.269-0.288-1.634-0.877c-0.365-0.589-0.724-1.543-0.675-2.604c0.034-0.73,0.095-0.95,0.193-1.328
				c0.25-0.971,0.846-1.575,1.76-1.575c0.405,0,0.747,0.126,1.026,0.39c0.278,0.263,0.418,0.621,0.418,1.098
				c0,0.098-0.008,0.194-0.024,0.321H75.56V15.369z M114.942,15.369v0.317h2.826c-0.027-0.571-0.278-1.18-0.754-1.711
				s-1.149-0.79-2.019-0.79c-0.925,0-1.695,0.352-2.312,1.05c-0.616,0.697-0.924,1.574-0.924,2.627c0,0.744,0.159,1.377,0.478,1.897
				c0.319,0.521,0.729,0.924,1.229,1.209s1.031,0.427,1.594,0.427c0.606,0,1.165-0.168,1.679-0.48
				c0.513-0.312,0.857-0.739,1.03-1.311h-0.389c-0.411,0.888-1.109,1.339-2.092,1.339c-0.725,0-1.27-0.288-1.634-0.877
				c-0.365-0.589-0.724-1.543-0.675-2.604c0.034-0.73,0.096-0.95,0.193-1.328c0.25-0.971,0.846-1.575,1.76-1.575
				c0.406,0,0.747,0.126,1.026,0.39c0.278,0.263,0.418,0.621,0.418,1.098c0,0.098-0.008,0.194-0.024,0.321h-1.41V15.369z
				 M1.773,15.135L1.773,15.135C1.773,15.136,1.773,15.135,1.773,15.135L1.773,15.135z M14.287,19.179
				c-0.019-0.182-0.046-0.628-0.046-1.339v-2.63c0-0.015-0.026-0.531-0.035-0.521c-0.135-0.499-0.368-0.874-0.709-1.123
				c-0.341-0.25-0.781-0.375-1.328-0.375c-0.481,0-0.93,0.117-1.349,0.35c-0.419,0.233-0.809,0.562-1.171,1.028
				c0-0.57-0.078-0.978-0.234-1.422H9.334c-0.503,0.254-1.098,0.333-1.92,0.409v0.375c0.379,0,0.638,0.044,0.782,0.13
				c0.143,0.087,0.23,0.216,0.254,0.387s0.039,0.636,0.039,1.396v1.994c0,0.803-0.015,1.283-0.048,1.441
				c-0.032,0.157-0.127,0.276-0.27,0.354c-0.143,0.079-0.378,0.118-0.757,0.118v0.375h3.224v-0.375
				c-0.316,0-0.592-0.046-0.733-0.138c-0.141-0.092-0.223-0.228-0.245-0.407c-0.022-0.179-0.034-0.635-0.034-1.368v-2.776
				c0.379-0.434,0.73-0.76,1.078-0.977c0.349-0.217,0.697-0.326,1.032-0.326c0.346,0,0.638,0.094,0.871,0.281
				c0.232,0.187,0.376,0.412,0.422,0.676c0.046,0.263,0.073,0.688,0.073,1.274v1.848c0,0.809-0.021,1.292-0.056,1.449
				s-0.153,0.274-0.296,0.35s-0.344,0.114-0.786,0.114v0.375h3.287v-0.375c-0.379,0-0.589-0.05-0.721-0.15
				C14.4,19.502,14.306,19.361,14.287,19.179z M18.898,19.256c-0.03-0.168-0.042-0.64-0.042-1.416v-2.003
				c0-0.678-0.03-1.169-0.106-1.473s-0.288-0.575-0.645-0.814s-0.786-0.358-1.3-0.358c-0.378,0-0.731,0.089-1.111,0.266v0.471
				c0.253-0.106,0.465-0.159,0.699-0.159c0.346,0,0.625,0.082,0.841,0.244c0.216,0.163,0.352,0.358,0.403,0.586
				c0.051,0.228,0.079,0.567,0.079,1.017v2.222c0,0.798-0.019,1.277-0.052,1.437s-0.129,0.28-0.272,0.358
				c-0.143,0.079-0.372,0.118-0.751,0.118v0.375h3.287v-0.375c-0.379,0-0.633-0.041-0.777-0.122
				C19.011,19.549,18.927,19.424,18.898,19.256z M65.681,19.179c-0.019-0.182-0.046-0.628-0.046-1.339v-2.63
				c0-0.015-0.027-0.531-0.035-0.521c-0.135-0.499-0.368-0.874-0.709-1.123c-0.34-0.25-0.781-0.375-1.328-0.375
				c-0.481,0-0.93,0.117-1.349,0.35c-0.419,0.233-0.809,0.562-1.171,1.028c0-0.57-0.078-0.978-0.234-1.422h-0.081
				c-0.503,0.254-1.098,0.333-1.92,0.409v0.375c0.442,0,0.638,0.044,0.781,0.13c0.143,0.087,0.23,0.216,0.254,0.387
				c0.024,0.171,0.039,0.636,0.039,1.396v1.994c0,0.803-0.016,1.283-0.048,1.441c-0.032,0.157-0.127,0.276-0.27,0.354
				c-0.143,0.079-0.377,0.118-0.757,0.118v0.375h3.287v-0.375c-0.379,0-0.624-0.046-0.765-0.138s-0.239-0.228-0.26-0.407
				c-0.022-0.179-0.049-0.635-0.049-1.368v-2.776c0.442-0.434,0.729-0.76,1.078-0.977c0.349-0.217,0.697-0.326,1.032-0.326
				c0.346,0,0.638,0.094,0.871,0.281c0.232,0.187,0.376,0.412,0.422,0.676c0.046,0.263,0.074,0.688,0.074,1.274v1.848
				c0,0.809-0.021,1.292-0.056,1.449c-0.035,0.157-0.121,0.274-0.264,0.35s-0.375,0.114-0.755,0.114v0.375h3.224v-0.375
				c-0.316,0-0.589-0.05-0.721-0.15C65.793,19.502,65.7,19.361,65.681,19.179z M70.307,19.256c-0.03-0.168-0.057-0.64-0.057-1.416
				v-2.003c0-0.678-0.03-1.169-0.106-1.473c-0.076-0.304-0.288-0.575-0.645-0.814c-0.357-0.239-0.786-0.358-1.299-0.358
				c-0.378,0-0.794,0.089-1.111,0.266v0.471c0.253-0.106,0.465-0.159,0.699-0.159c0.346,0,0.625,0.082,0.841,0.244
				c0.216,0.163,0.352,0.358,0.404,0.586c0.051,0.228,0.079,0.567,0.079,1.017v2.222c0,0.798-0.019,1.277-0.052,1.437
				c-0.032,0.16-0.097,0.28-0.24,0.358c-0.143,0.079-0.403,0.118-0.719,0.118v0.375h3.287v-0.375c-0.443,0-0.665-0.041-0.809-0.122
				C70.435,19.549,70.336,19.424,70.307,19.256z M25.167,13.192c-0.443,0-0.858,0.091-1.255,0.273
				c-0.087,0.04-0.188,0.085-0.251,0.134v0.419c0-0.021,0.06-0.041,0.093-0.06c0.335-0.19,0.686-0.285,1.06-0.285
				c0.605,0,1.126,0.247,1.564,0.741s0.656,1.24,0.656,2.239c0,1.15-0.228,1.989-0.682,2.515c-0.454,0.526-0.987,0.789-1.598,0.789
				c-0.362,0-0.701-0.091-1.028-0.273c-0.024-0.013-0.065-0.028-0.065-0.042v0.404c0.063,0.037,0.132,0.071,0.202,0.102
				c0.376,0.165,0.766,0.248,1.177,0.248c1,0,1.806-0.35,2.42-1.05s0.92-1.571,0.92-2.613c0-1.064-0.306-1.92-0.917-2.568
				C26.851,13.516,26.086,13.192,25.167,13.192z M22.833,23.351c-0.03-0.168-0.057-0.638-0.057-1.408v-8.196
				c0-0.205-0.072-0.344-0.123-0.598h-0.219c-0.816,0.254-1.491,0.396-2.06,0.45v0.375h0.276c0.346,0,0.587,0.049,0.722,0.146
				c0.135,0.098,0.216,0.239,0.235,0.423c0.019,0.184,0.032,0.632,0.032,1.343v6.056c0,0.744-0.013,1.193-0.032,1.347
				c-0.019,0.155-0.088,0.264-0.205,0.375c-0.116,0.111-0.368,0.143-0.752,0.143h-0.276v0.444h3.54v-0.396
				c-0.443,0-0.664-0.042-0.805-0.126C22.968,23.645,22.862,23.519,22.833,23.351z M52.91,19.313
				c-0.027-0.168-0.044-0.64-0.044-1.416V8.961H52.73c-0.779,0.19-1.508,0.299-2.141,0.315v0.383h0.162
				c0.346,0,0.587,0.045,0.722,0.142c0.135,0.098,0.21,0.237,0.229,0.421c0.019,0.185,0.026,0.63,0.026,1.341v2.605
				c0-0.021,0,0.452,0,0.472v4.095c0,0.031,0,0.456,0,0.456v1.205c0,0,1.517-0.195,2.212-0.212V19.81
				c-0.316,0-0.628-0.041-0.771-0.122C53.026,19.606,52.937,19.481,52.91,19.313z M50.759,19.614
				c-0.351,0.195-0.732,0.293-1.143,0.293c-0.616,0-1.134-0.258-1.553-0.773c-0.419-0.515-0.629-1.316-0.629-2.401
				c0-1.069,0.204-1.84,0.612-2.312s0.918-0.708,1.529-0.708c0.362,0,0.723,0.077,1.083,0.232c0.04,0.017,0.079,0.035,0.119,0.054
				l-0.004-0.485c-0.058-0.028-0.117-0.054-0.176-0.078c-0.4-0.163-0.825-0.244-1.273-0.244c-0.881,0-1.641,0.335-2.279,1.005
				c-0.638,0.67-0.957,1.548-0.957,2.633c0,0.988,0.312,1.829,0.937,2.523c0.624,0.695,1.367,1.042,2.226,1.042
				c0.454,0,0.893-0.1,1.318-0.301c0.084-0.04,0.167-0.085,0.251-0.132l-0.003-0.382C50.798,19.591,50.779,19.603,50.759,19.614z"/>
		</g>
	</g>
	<rect y="-24.5" fill="none" width="124" height="49"/>
</g>
<g>
	<g>
		<g>
			<path d="M12.073,35.812c0.245,0.031,0.398-0.369,0.245-0.523c-1.012-1.046-2.238-2.062-3.403-2.892
				c-1.809,3.354-4.905,6.585-8.063,8.893l0.245,0.4c3.281-1.077,6.408-2.923,9.167-5.293
				C10.877,35.873,11.521,35.781,12.073,35.812z M17.714,34.335c0.245-0.123,0.491-0.277,0.705-0.492
				c0.092-0.123,0.061-0.431-0.061-0.462c-1.318-0.462-2.821-0.831-4.262-1.139c0.092,0.708,0.123,1.446,0.123,2.246v3.108
				c0,0.892,0.245,1.569,0.705,2.031c0.491,0.492,1.196,0.739,2.085,0.8c2.023,0.092,4.016,0.092,6.07,0.031
				c0.797,0,1.809-0.185,2.391-0.585c0.245-0.154,0.245-0.677,0.123-0.893c-0.398-0.615-0.981-1.384-1.533-1.908
				c-0.153-0.154-0.337-0.154-0.521-0.062c-0.582,0.369-1.288,0.554-1.962,0.616c-1.165,0.061-2.514,0.031-3.648,0
				c-0.307-0.031-0.521-0.277-0.521-0.616v-2.246C17.407,34.55,17.53,34.427,17.714,34.335z M2.492,35.455
				c0.721-0.126,1.38-0.535,1.82-1.133c0.628-0.882,0.753-2.047,0.784-3.181h17.696c-0.408,1.197-0.91,2.456-1.443,3.59l0.377,0.283
				c0.816-0.63,1.788-1.417,2.573-2.141c0.377-0.346,1.004-0.566,1.443-0.598c0.47-0.031,1.004-0.031,1.38-0.095
				c0.251-0.032,0.439-0.504,0.22-0.724c-0.816-0.913-1.789-1.827-2.761-2.614c-0.188-0.157-0.408-0.189-0.596,0
				c-0.439,0.378-0.973,0.819-1.412,1.323h-8.095c0.565-0.473,0.878-1.008,1.004-1.732c0.125-0.756-0.032-1.574-0.69-2.015
				c-1.349-0.85-2.918-1.197-4.518-1.449l-0.283,0.378c1.129,0.787,1.851,2.078,2.196,3.401c0.126,0.535,0.408,0.976,0.753,1.417
				H4.971c-0.031-0.787-0.157-1.638-0.314-2.236l-0.47,0.031c-0.252,1.858-1.036,3.275-2.573,4.315
				c-0.69,0.472-1.067,0.945-1.192,1.385c-0.188,0.567,0,1.102,0.408,1.417C1.3,35.455,1.927,35.55,2.492,35.455z M1.426,51.578
				c0.502-0.189,1.098-0.283,1.694-0.283h23.406c0.188,0,0.314-0.315,0.157-0.504c-0.722-0.851-1.82-1.827-2.824-2.582
				c-0.125-0.126-0.439-0.094-0.533,0.032c-0.471,0.503-1.286,1.448-1.757,2.078h-6.338v-6.361h8.063
				c0.251,0,0.345-0.315,0.157-0.503c-0.753-0.787-1.695-1.575-2.573-2.173c-0.157-0.126-0.408-0.095-0.565,0.063
				c-0.471,0.441-1.318,1.228-1.726,1.669H4.343l0.878,1.259c0.534-0.189,1.255-0.315,1.851-0.315h4.738v6.361H0.61L1.426,51.578z
				 M66.646,29.566c0.345,0.157,0.784,0.126,1.129-0.157c0.596-0.472,0.91-1.134,0.879-1.732c-0.032-0.724-0.502-1.449-1.224-1.795
				c-1.192-0.567-2.51-0.819-3.451-0.819l-0.188,0.284c1.161,1.133,1.631,1.889,1.945,3.054
				C65.862,28.937,66.207,29.378,66.646,29.566z M69.376,40.682c-0.157-0.094-0.283-0.094-0.44,0.032
				c-0.282,0.315-0.753,0.819-1.035,1.228h-3.012c-1.036-0.472-2.353-1.071-3.263-1.449c0.094,0.945,0.063,2.205,0.063,2.897v6.581
				c0,0.44-0.031,1.323-0.126,2.173c0,0.284,0.282,0.598,0.502,0.598c0.659-0.063,1.82-0.346,2.416-0.63
				c0.251-0.094,0.345-0.346,0.345-0.693v-2.015h3.201v2.614c0,0.252,0.251,0.504,0.471,0.504c0.722,0,1.788-0.221,2.385-0.535
				c0.188-0.127,0.345-0.473,0.314-0.819c-0.031-0.693-0.063-2.614-0.063-3.307v-3.495c0-0.378,0.345-0.819,0.816-0.976
				c0.22-0.095,0.314-0.441,0.157-0.567C71.54,42.289,70.128,41.186,69.376,40.682z M68.027,48.43h-3.201v-5.511h3.201V48.43z
				 M62.567,31.015h10.604c0.189,0,0.346-0.346,0.22-0.504c-0.722-0.787-1.882-1.952-2.51-2.487
				c-0.157-0.126-0.345-0.095-0.502,0.031c-0.502,0.504-1.255,1.386-1.663,1.984h-8.534l0.91,1.197
				C61.469,31.11,62.002,31.015,62.567,31.015z M75.023,28.779h7.468v8.062h-4.989c-1.192-0.567-2.793-1.291-3.703-1.669
				c0.094,0.913,0.126,1.984,0.126,2.96V49.5c0,0.692,0.251,1.322,0.659,1.826c0.439,0.535,1.067,0.882,1.819,0.945
				c2.573,0.189,5.93,0.347,8.596,0.063c0.753-0.094,1.381-0.441,1.883-0.976c0.534-0.535,0.879-1.26,1.098-2.047
				c-0.502-0.158-0.941-0.472-1.255-0.881c-0.314-0.41-0.502-0.882-0.534-1.386c-0.094-1.259-0.188-2.488-0.125-3.873h-0.439
				c-0.313,1.637-1.004,4.346-1.474,5.448c-0.189,0.409-0.534,0.724-1.036,0.756c-1.506,0.094-3.42,0.063-5.114-0.063
				c-0.565-0.031-0.816-0.315-0.816-0.724v-10.77h5.303v2.204c0,0.22,0.156,0.409,0.439,0.441c0.628,0.063,2.102-0.252,2.447-0.441
				c0.282-0.126,0.439-0.441,0.439-0.661c-0.031-0.567-0.063-1.606-0.063-2.299V30.07c0-0.315,0.533-0.819,0.973-1.039
				c0.156-0.063,0.188-0.378,0.062-0.504c-0.814-0.755-1.787-1.574-2.571-2.141c-0.157-0.095-0.345-0.095-0.502,0.031
				c-0.502,0.41-0.878,0.882-1.255,1.386h-9.821l1.035,1.259C74.019,28.905,74.615,28.779,75.023,28.779z M123.648,33.63
				c-0.628-0.819-1.474-1.686-2.322-2.347c-0.157-0.126-0.408-0.105-0.502-0.01c-0.471,0.567-1.067,1.372-1.412,1.817h-3.42
				c0.69-0.444,1.318-1.021,1.945-1.62c0.377-0.409,0.941-0.7,1.412-0.7c0.189,0,0.282-0.335,0.094-0.461
				c-0.44-0.252-1.318-0.709-1.977-1.154h5.271c0.157,0,0.282-0.267,0.157-0.424c-0.721-0.851-1.568-1.567-2.384-2.26
				c-0.157-0.125-0.408-0.126-0.565,0.032c-0.314,0.378-1.004,1.32-1.38,1.764h-4.078c0.471-0.444,0.627-1.035,0.471-1.602
				c-0.126-0.503-0.471-0.958-0.941-1.21c-1.004-0.472-2.228-0.542-3.42-0.51l-0.095,0.307c1.004,0.787,1.663,1.937,1.945,3.016
				h-7.248l0.815,1.153c0.314-0.126,0.753-0.264,1.255-0.264h8.628c-0.314,1.332-0.879,2.855-1.381,3.934h-2.573
				c0.313-0.444,0.502-0.927,0.439-1.368c-0.031-0.377-0.251-0.763-0.69-1.109c-0.878-0.662-2.133-1.011-3.576-1.137l-0.188,0.327
				c0.973,0.819,1.537,2.209,1.851,3.288h-3.891c-0.69-1.079-1.82-1.854-3.148-2.452v-3.247c0-0.346,0.382-0.818,0.821-1.007
				c0.189-0.063,0.113-0.504-0.076-0.567c-1.286-0.473-2.722-0.788-4.071-1.071c0.094,1.008,0.039,2.519,0.039,3.307v17.729
				c0,1.637,0.018,4.849-0.077,6.424c0,0.409,0.213,0.63,0.558,0.693c0.533,0.126,1.612-0.126,2.271-0.472
				c0.314-0.189,0.566-0.536,0.566-0.756c-0.063-1.071-0.031-4.062-0.031-5.133V31.519c0.442,0.536,0.664,1.669,0.695,2.834
				c0,0.598,0.332,1.228,0.771,1.385c0.22,0.126,0.527,0.065,0.872-0.187c0.565-0.347,0.903-0.876,0.966-1.573h17.444
				C123.648,33.978,123.742,33.788,123.648,33.63z M118,48.271c-0.377-0.566-0.534-1.354-0.502-2.425l-0.439-0.031
				c-0.125,0.756-0.439,2.11-0.659,2.803c-0.125,0.409-0.502,0.693-0.91,0.724c-1.161,0.094-2.373,0.094-3.502,0
				c-0.22-0.032-0.459-0.284-0.459-0.504v-2.236c0-0.377,0.334-0.755,0.679-0.881c0.219-0.063,0.198-0.473-0.052-0.567
				c-1.161-0.378-2.474-0.693-3.76-0.976c0.062,0.63,0.099,1.26,0.099,1.889v3.779c0,0.598,0.172,1.165,0.549,1.606
				c0.345,0.441,0.855,0.724,1.514,0.787c2.008,0.126,4.099,0.158,6.138,0.063c0.784-0.031,1.437-0.346,1.876-0.787
				c0.533-0.567,0.876-1.354,1.095-2.173C118.976,49.153,118.377,48.839,118,48.271z M106.956,44.954h-0.314
				c-0.565,1.777-1.6,2.997-2.792,3.879c-0.502,0.378-0.722,0.963-0.628,1.467c0.063,0.472,0.408,0.891,1.035,1.048
				c0.722,0.22,1.412,0.036,1.945-0.373c0.471-0.347,0.816-0.885,0.973-1.452C107.584,48.107,107.333,46.287,106.956,44.954z
				 M118.408,45.343c0.973,1.417,1.569,2.991,1.789,4.629c0.125,0.756,0.408,1.417,0.879,1.543c0.314,0.126,0.722,0,1.192-0.41
				c0.627-0.535,0.941-1.102,0.973-1.7c0-0.567-0.22-1.134-0.628-1.732c-0.91-1.197-2.447-2.078-3.922-2.708L118.408,45.343z
				 M97.418,38.32c0.596-0.252,1.098-0.818,1.318-1.511c0.533-1.732,0.22-4.094-0.22-5.92l-0.408,0.094
				c-0.188,2.047-0.878,3.559-2.039,4.818c-0.314,0.346-0.596,0.882-0.628,1.417c-0.031,0.378,0.094,0.693,0.408,0.945
				C96.383,38.51,96.916,38.51,97.418,38.32z M118.658,34.573c-0.157-0.063-0.345-0.134-0.439-0.008
				c-0.377,0.346-0.753,0.745-1.067,1.189h-7.31c-0.816-0.19-2.549-1-3.458-1.284c0.063,0.819,0.087,2.212,0.087,2.937v3.558
				c0,0.724-0.055,1.953-0.055,2.645c-0.032,0.315,0.16,0.472,0.443,0.536c0.596,0.094,1.947-0.297,2.324-0.581
				c0.251-0.157,0.441-0.325,0.41-0.769h7.689v0.846c0,0.315,0.203,0.441,0.486,0.472c0.69,0.094,1.937-0.252,2.407-0.63
				c0.188-0.126,0.275-0.346,0.243-0.598c-0.063-0.756-0.102-1.48-0.102-2.236v-2.645c0-0.504,0.38-1.007,0.914-1.165
				c0.157-0.063,0.159-0.41,0.033-0.503C120.446,35.707,119.506,35.109,118.658,34.573z M117.281,41.909h-7.712v-5.076h7.712V41.909
				z M54.098,30.479c-0.188-0.126-0.376-0.067-0.502,0.09c-0.44,0.472-0.973,0.998-1.381,1.696h-4.361
				c0.659-1.332,1.255-2.735,1.82-4.12c0.219-0.535,0.722-0.784,1.192-0.88c0.22-0.063,0.251-0.518,0.032-0.644
				c-1.224-0.661-2.855-1.362-4.361-1.834c-0.188,5.259-2.008,9.475-4.455,14.608l0.345,0.233c1.914-2.047,3.514-4.064,4.926-6.538
				h5.239c-0.094,4.187-0.282,10-0.816,14.881c-0.063,0.378-0.502,0.796-0.878,0.764c-1.977-0.063-3.953-0.216-5.899-0.436
				l-0.063,0.38c1.004,0.378,2.51,0.82,3.388,1.45c0.879,0.661,1.443,1.669,1.569,2.709c1.569-0.189,2.761-0.472,3.639-1.165
				c0.785-0.661,1.318-1.669,1.475-3.275c0.407-4.755,0.596-9.951,0.753-14.391c0.031-0.41,0.502-0.724,0.815-0.945
				c0.22-0.126,0.22-0.441,0.032-0.63C55.824,31.707,54.945,31.078,54.098,30.479z M39.32,50.676
				c0.816-0.063,1.82-0.415,2.353-1.013c0.251-0.283,0.316-0.538,0.316-0.917c-0.063-1.448-0.186-3.089-0.186-4.537V33.975
				c0-0.283,0.186-0.504,0.375-0.63c0.22-0.125,0.422-0.252,0.611-0.409c0.157-0.157,0.321-0.472,0.102-0.661
				c-0.816-0.756-1.722-1.354-2.632-1.953c-0.189-0.094-0.439-0.132-0.595,0.057c-0.251,0.409-0.908,1.187-1.19,1.631h-2.949
				c1.004-1.079,1.851-2.388,2.667-3.71c0.314-0.504,0.91-0.753,1.475-0.816c0.188,0,0.345-0.471,0.094-0.628
				c-1.412-0.882-3.2-1.448-4.8-1.857c0.314,1.889-0.094,5.259-0.722,6.96c-1.129-0.661-2.47-1.291-3.662-1.826
				c0.125,0.409,0.165,1.197,0.165,1.606v15.367c0,0.882,0.054,2.614,0.023,3.622c0,0.409,0.278,0.536,0.592,0.536
				c0.847-0.032,1.739-0.221,2.367-0.693c0.251-0.189,0.352-0.545,0.352-0.86c-0.031-0.535-0.025-1.204,0.007-1.457h4.675
				c0.031,0.444,0.031,1.364,0,1.899C38.724,50.498,39.007,50.676,39.32,50.676z M38.706,47.175h-4.615V33.09h4.615V47.175z
				 M86.385,68.179c-0.019-0.182-0.016-0.628-0.016-1.339v-2.63c0-0.015-0.055-0.531-0.063-0.521
				c-0.135-0.499-0.382-0.874-0.723-1.123c-0.341-0.25-0.788-0.375-1.334-0.375c-0.482,0-0.934,0.117-1.353,0.35
				c-0.419,0.233-0.811,0.562-1.173,1.028c0-0.57-0.08-0.978-0.236-1.422h-0.081c-0.503,0.254-1.105,0.333-1.864,0.409v0.375
				c0.379,0,0.61,0.044,0.753,0.13c0.143,0.087,0.244,0.216,0.268,0.387c0.024,0.171,0.053,0.636,0.053,1.396v1.994
				c0,0.803-0.043,1.283-0.076,1.441c-0.032,0.157-0.113,0.276-0.256,0.354c-0.143,0.079-0.427,0.118-0.743,0.118v0.375h3.224
				v-0.375c-0.316,0-0.621-0.046-0.761-0.138c-0.141-0.092-0.209-0.228-0.23-0.407c-0.022-0.179-0.02-0.635-0.02-1.368v-2.776
				c0.379-0.434,0.701-0.76,1.05-0.977c0.349-0.217,0.682-0.326,1.018-0.326c0.346,0,0.631,0.094,0.864,0.281
				c0.232,0.187,0.369,0.412,0.415,0.676c0.046,0.263,0.067,0.688,0.067,1.274v1.848c0,0.809-0.017,1.292-0.052,1.449
				c-0.035,0.157-0.123,0.274-0.266,0.35c-0.143,0.076-0.377,0.114-0.756,0.114v0.375h3.224v-0.375c-0.316,0-0.585-0.05-0.717-0.15
				C86.467,68.502,86.404,68.361,86.385,68.179z M91.011,68.256c-0.03-0.168-0.027-0.64-0.027-1.416v-2.003
				c0-0.678-0.058-1.169-0.134-1.473c-0.076-0.304-0.302-0.575-0.659-0.814c-0.357-0.239-0.796-0.358-1.31-0.358
				c-0.378,0-0.742,0.089-1.121,0.266v0.471c0.253-0.106,0.468-0.159,0.702-0.159c0.346,0,0.627,0.082,0.843,0.244
				c0.216,0.163,0.349,0.358,0.401,0.586c0.051,0.228,0.076,0.567,0.076,1.017v2.222c0,0.798-0.016,1.277-0.048,1.437
				c-0.032,0.16-0.099,0.28-0.242,0.358c-0.143,0.079-0.405,0.118-0.721,0.118v0.375h3.287v-0.375c-0.379,0-0.662-0.041-0.805-0.122
				C91.11,68.549,91.041,68.424,91.011,68.256z M32.63,68.826c-0.2,0-0.388-0.065-0.564-0.196c-0.176-0.13-0.291-0.302-0.345-0.517
				c-0.054-0.214-0.081-0.631-0.081-1.25v-4.029h2.003V62.46H31.64v-2.092h-0.26c-0.097,0.657-0.322,1.167-0.673,1.53
				c-0.351,0.364-0.749,0.551-1.192,0.562v0.374h0.965v3.777c0,0.776,0.036,1.319,0.109,1.628s0.257,0.579,0.551,0.81
				c0.295,0.231,0.637,0.346,1.026,0.346c0.335,0,0.666-0.091,0.994-0.273c0.327-0.182,0.574-0.452,0.742-0.81l-0.259-0.155
				C33.357,68.603,33.019,68.826,32.63,68.826z M36.921,68.606c-0.135-0.098-0.214-0.239-0.235-0.423
				c-0.022-0.184-0.033-0.632-0.033-1.343v-4.648h-0.178c-0.53,0.19-1.276,0.334-2.238,0.431v0.375h0.219
				c0.303,0,0.515,0.022,0.637,0.065c0.122,0.044,0.219,0.152,0.292,0.326c0.073,0.174,0.109,0.651,0.109,1.433v2.019
				c0,0.744-0.009,1.192-0.028,1.347s-0.086,0.288-0.203,0.399c-0.116,0.111-0.366,0.167-0.75,0.167h-0.276v0.374h3.577v-0.374
				h-0.17C37.297,68.753,37.056,68.704,36.921,68.606z M36.524,58.413c0.162-0.168,0.243-0.372,0.243-0.611
				c0-0.233-0.081-0.434-0.243-0.602c-0.162-0.168-0.36-0.253-0.592-0.253s-0.431,0.084-0.596,0.253
				c-0.165,0.168-0.247,0.369-0.247,0.602c0,0.239,0.082,0.442,0.247,0.611c0.165,0.168,0.364,0.252,0.596,0.252
				C36.164,58.665,36.361,58.581,36.524,58.413z M96.621,62.192c-0.995,0-1.833,0.343-2.514,1.03s-1.022,1.54-1.022,2.56
				c0,1.102,0.345,1.979,1.034,2.633c0.689,0.654,1.523,0.981,2.502,0.981s1.814-0.322,2.506-0.965
				c0.692-0.643,1.038-1.526,1.038-2.65c0-1.015-0.34-1.867-1.022-2.556C98.462,62.536,97.621,62.192,96.621,62.192z M98.247,68.309
				c-0.376,0.475-0.918,0.712-1.626,0.712c-0.692,0-1.23-0.238-1.614-0.712c-0.384-0.475-0.576-1.304-0.576-2.487
				c0-1.178,0.188-2.015,0.564-2.511c0.376-0.497,0.918-0.745,1.626-0.745c0.714,0,1.257,0.25,1.63,0.749s0.56,1.335,0.56,2.507
				C98.811,67.005,98.623,67.834,98.247,68.309z M105.697,62.192c-0.395,0-0.799,0.163-1.212,0.488
				c-0.414,0.326-0.712,0.73-0.896,1.213c-0.016-0.705-0.103-1.272-0.26-1.701c-0.822,0.26-1.487,0.421-1.995,0.48v0.366h0.17
				c0.346,0,0.587,0.05,0.722,0.151c0.135,0.1,0.212,0.241,0.231,0.423c0.019,0.182,0.029,0.631,0.029,1.347v1.88
				c0,0.771-0.013,1.237-0.041,1.4c-0.027,0.163-0.109,0.289-0.247,0.378c-0.138,0.09-0.369,0.134-0.693,0.134h-0.17v0.374h3.528
				v-0.374h-0.227c-0.346,0-0.587-0.049-0.722-0.146c-0.135-0.098-0.212-0.239-0.231-0.423c-0.019-0.184-0.029-0.632-0.029-1.343
				v-1.188c0-0.597,0.046-1.066,0.138-1.408c0.092-0.342,0.3-0.672,0.624-0.989c0.325-0.317,0.603-0.476,0.835-0.476
				c0.195,0,0.341,0.136,0.438,0.407c0.141,0.402,0.346,0.602,0.617,0.602c0.151,0,0.28-0.057,0.385-0.171
				c0.105-0.114,0.158-0.25,0.158-0.407c0-0.233-0.103-0.461-0.308-0.684C106.335,62.303,106.054,62.192,105.697,62.192z
				 M109.875,68.606c-0.135-0.098-0.214-0.239-0.235-0.423c-0.022-0.184-0.032-0.632-0.032-1.343v-4.648h-0.178
				c-0.53,0.19-1.276,0.334-2.238,0.431v0.375h0.219c0.303,0,0.515,0.022,0.637,0.065c0.122,0.044,0.219,0.152,0.292,0.326
				s0.109,0.651,0.109,1.433v2.019c0,0.744-0.01,1.192-0.028,1.347c-0.019,0.155-0.086,0.288-0.203,0.399
				c-0.116,0.111-0.366,0.167-0.75,0.167h-0.276v0.374h3.577v-0.374h-0.17C110.251,68.753,110.01,68.704,109.875,68.606z
				 M108.886,58.665c0.232,0,0.43-0.084,0.592-0.252s0.243-0.372,0.243-0.611c0-0.233-0.081-0.434-0.243-0.602
				c-0.162-0.168-0.36-0.253-0.592-0.253c-0.233,0-0.431,0.084-0.596,0.253c-0.165,0.168-0.248,0.369-0.248,0.602
				c0,0.239,0.083,0.442,0.248,0.611C108.455,58.581,108.653,58.665,108.886,58.665z M121.443,65.057
				c-0.611-0.277-1.025-0.524-1.241-0.741c-0.222-0.212-0.333-0.464-0.333-0.757c0-0.266,0.1-0.499,0.3-0.7
				c0.2-0.201,0.462-0.301,0.787-0.301c0.422,0,0.788,0.178,1.099,0.533s0.52,0.78,0.629,1.274h0.3v-2.06h-0.3
				c-0.13,0.315-0.235,0.513-0.316,0.594c-0.379-0.472-0.857-0.708-1.436-0.708c-0.568,0-1.008,0.199-1.322,0.598
				c-0.313,0.399-0.47,0.818-0.47,1.258c0,0.461,0.146,0.849,0.438,1.164c0.292,0.32,0.773,0.646,1.444,0.977
				c0.638,0.315,1.068,0.583,1.289,0.806c0.216,0.223,0.324,0.508,0.324,0.855c0,0.298-0.101,0.573-0.304,0.822
				c-0.203,0.25-0.51,0.375-0.921,0.375c-0.946,0-1.603-0.632-1.971-1.897h-0.317v2.19h0.317c0.092-0.304,0.211-0.537,0.357-0.7
				c0.476,0.505,1.019,0.757,1.63,0.757c0.579,0,1.059-0.182,1.44-0.545c0.381-0.364,0.572-0.836,0.572-1.416
				c0-0.369-0.103-0.754-0.308-1.156C122.924,65.882,122.362,65.475,121.443,65.057z M1.726,64.369h0.023l0.024-0.253
				C1.755,64.197,1.739,64.306,1.726,64.369z M3.495,64.369v0.317h2.829c-0.027-0.571-0.279-1.18-0.754-1.711
				c-0.476-0.531-1.149-0.79-2.019-0.79c-0.925,0-1.695,0.352-2.312,1.05c-0.616,0.697-0.924,1.574-0.924,2.627
				c0,0.744,0.16,1.377,0.479,1.897c0.319,0.521,0.729,0.924,1.229,1.209c0.5,0.285,1.031,0.427,1.594,0.427
				c0.606,0,1.165-0.168,1.679-0.48c0.514-0.312,0.857-0.739,1.03-1.311H5.935c-0.411,0.888-1.109,1.339-2.093,1.339
				c-0.725,0-1.269-0.288-1.634-0.877c-0.365-0.589-0.724-1.543-0.675-2.604c0.034-0.73,0.095-0.95,0.193-1.328
				c0.25-0.971,0.846-1.575,1.76-1.575c0.406,0,0.747,0.126,1.026,0.39C4.79,63.212,4.93,63.57,4.93,64.047
				c0,0.098-0.008,0.194-0.024,0.321H3.495V64.369z M41.993,64.369v0.317h2.821c-0.027-0.571-0.278-1.18-0.754-1.711
				s-1.149-0.79-2.019-0.79c-0.925,0-1.695,0.352-2.312,1.05c-0.616,0.697-0.924,1.574-0.924,2.627c0,0.744,0.159,1.377,0.479,1.897
				c0.319,0.521,0.729,0.924,1.229,1.209c0.5,0.285,1.031,0.427,1.594,0.427c0.606,0,1.165-0.168,1.679-0.48
				c0.513-0.312,0.857-0.739,1.03-1.311h-0.389c-0.411,0.888-1.109,1.339-2.093,1.339c-0.724,0-1.269-0.288-1.634-0.877
				c-0.365-0.589-0.724-1.543-0.675-2.604c0.034-0.73,0.095-0.95,0.193-1.328c0.25-0.971,0.846-1.575,1.76-1.575
				c0.406,0,0.747,0.126,1.026,0.39c0.278,0.263,0.418,0.621,0.418,1.098c0,0.098-0.008,0.194-0.024,0.321h-1.405V64.369z
				 M75.56,64.369v0.317h2.852c-0.027-0.571-0.279-1.18-0.754-1.711c-0.476-0.531-1.149-0.79-2.019-0.79
				c-0.925,0-1.695,0.352-2.312,1.05c-0.616,0.697-0.925,1.574-0.925,2.627c0,0.744,0.16,1.377,0.479,1.897
				c0.319,0.521,0.729,0.924,1.229,1.209c0.5,0.285,1.031,0.427,1.594,0.427c0.606,0,1.165-0.168,1.679-0.48
				c0.514-0.312,0.857-0.739,1.03-1.311h-0.389c-0.411,0.888-1.109,1.339-2.092,1.339c-0.725,0-1.269-0.288-1.634-0.877
				c-0.365-0.589-0.724-1.543-0.675-2.604c0.034-0.73,0.095-0.95,0.193-1.328c0.25-0.971,0.846-1.575,1.76-1.575
				c0.405,0,0.747,0.126,1.026,0.39c0.278,0.263,0.418,0.621,0.418,1.098c0,0.098-0.008,0.194-0.024,0.321H75.56V64.369z
				 M114.942,64.369v0.317h2.826c-0.027-0.571-0.278-1.18-0.754-1.711s-1.149-0.79-2.019-0.79c-0.925,0-1.695,0.352-2.312,1.05
				c-0.616,0.697-0.924,1.574-0.924,2.627c0,0.744,0.159,1.377,0.478,1.897c0.319,0.521,0.729,0.924,1.229,1.209
				c0.5,0.285,1.031,0.427,1.594,0.427c0.606,0,1.165-0.168,1.679-0.48c0.513-0.312,0.857-0.739,1.03-1.311h-0.389
				c-0.411,0.888-1.109,1.339-2.092,1.339c-0.725,0-1.27-0.288-1.634-0.877c-0.365-0.589-0.724-1.543-0.675-2.604
				c0.034-0.73,0.096-0.95,0.193-1.328c0.25-0.971,0.846-1.575,1.76-1.575c0.406,0,0.747,0.126,1.026,0.39
				c0.278,0.263,0.418,0.621,0.418,1.098c0,0.098-0.008,0.194-0.024,0.321h-1.41V64.369z M1.773,64.135L1.773,64.135
				C1.773,64.136,1.773,64.135,1.773,64.135L1.773,64.135z M14.287,68.179c-0.019-0.182-0.046-0.628-0.046-1.339v-2.63
				c0-0.015-0.026-0.531-0.035-0.521c-0.135-0.499-0.368-0.874-0.709-1.123c-0.341-0.25-0.781-0.375-1.328-0.375
				c-0.481,0-0.93,0.117-1.349,0.35c-0.419,0.233-0.809,0.562-1.171,1.028c0-0.57-0.078-0.978-0.234-1.422H9.334
				c-0.503,0.254-1.098,0.333-1.92,0.409v0.375c0.379,0,0.638,0.044,0.782,0.13c0.143,0.087,0.23,0.216,0.254,0.387
				s0.039,0.636,0.039,1.396v1.994c0,0.803-0.015,1.283-0.048,1.441c-0.032,0.157-0.127,0.276-0.27,0.354
				c-0.143,0.079-0.378,0.118-0.757,0.118v0.375h3.224v-0.375c-0.316,0-0.592-0.046-0.733-0.138
				c-0.141-0.092-0.223-0.228-0.245-0.407c-0.022-0.179-0.034-0.635-0.034-1.368v-2.776c0.379-0.434,0.73-0.76,1.078-0.977
				c0.349-0.217,0.697-0.326,1.032-0.326c0.346,0,0.638,0.094,0.871,0.281c0.232,0.187,0.376,0.412,0.422,0.676
				c0.046,0.263,0.073,0.688,0.073,1.274v1.848c0,0.809-0.021,1.292-0.056,1.449c-0.035,0.157-0.153,0.274-0.296,0.35
				c-0.143,0.076-0.344,0.114-0.786,0.114v0.375h3.287v-0.375c-0.379,0-0.589-0.05-0.721-0.15
				C14.4,68.502,14.306,68.361,14.287,68.179z M18.898,68.256c-0.03-0.168-0.042-0.64-0.042-1.416v-2.003
				c0-0.678-0.03-1.169-0.106-1.473s-0.288-0.575-0.645-0.814s-0.786-0.358-1.3-0.358c-0.378,0-0.731,0.089-1.111,0.266v0.471
				c0.253-0.106,0.465-0.159,0.699-0.159c0.346,0,0.625,0.082,0.841,0.244c0.216,0.163,0.352,0.358,0.403,0.586
				c0.051,0.228,0.079,0.567,0.079,1.017v2.222c0,0.798-0.019,1.277-0.052,1.437c-0.033,0.16-0.129,0.28-0.272,0.358
				c-0.143,0.079-0.372,0.118-0.751,0.118v0.375h3.287v-0.375c-0.379,0-0.633-0.041-0.777-0.122
				C19.011,68.549,18.927,68.424,18.898,68.256z M65.681,68.179c-0.019-0.182-0.046-0.628-0.046-1.339v-2.63
				c0-0.015-0.027-0.531-0.035-0.521c-0.135-0.499-0.368-0.874-0.709-1.123c-0.34-0.25-0.781-0.375-1.328-0.375
				c-0.481,0-0.93,0.117-1.349,0.35c-0.419,0.233-0.809,0.562-1.171,1.028c0-0.57-0.078-0.978-0.234-1.422h-0.081
				c-0.503,0.254-1.098,0.333-1.92,0.409v0.375c0.442,0,0.638,0.044,0.781,0.13c0.143,0.087,0.23,0.216,0.254,0.387
				c0.024,0.171,0.039,0.636,0.039,1.396v1.994c0,0.803-0.016,1.283-0.048,1.441c-0.032,0.157-0.127,0.276-0.27,0.354
				c-0.143,0.079-0.377,0.118-0.757,0.118v0.375h3.287v-0.375c-0.379,0-0.624-0.046-0.765-0.138s-0.239-0.228-0.26-0.407
				c-0.022-0.179-0.049-0.635-0.049-1.368v-2.776c0.442-0.434,0.729-0.76,1.078-0.977c0.349-0.217,0.697-0.326,1.032-0.326
				c0.346,0,0.638,0.094,0.871,0.281c0.232,0.187,0.376,0.412,0.422,0.676c0.046,0.263,0.074,0.688,0.074,1.274v1.848
				c0,0.809-0.021,1.292-0.056,1.449c-0.035,0.157-0.121,0.274-0.264,0.35c-0.143,0.076-0.375,0.114-0.755,0.114v0.375h3.224v-0.375
				c-0.316,0-0.589-0.05-0.721-0.15C65.793,68.502,65.7,68.361,65.681,68.179z M70.307,68.256c-0.03-0.168-0.057-0.64-0.057-1.416
				v-2.003c0-0.678-0.03-1.169-0.106-1.473c-0.076-0.304-0.288-0.575-0.645-0.814c-0.357-0.239-0.786-0.358-1.299-0.358
				c-0.378,0-0.794,0.089-1.111,0.266v0.471c0.253-0.106,0.465-0.159,0.699-0.159c0.346,0,0.625,0.082,0.841,0.244
				c0.216,0.163,0.352,0.358,0.404,0.586c0.051,0.228,0.079,0.567,0.079,1.017v2.222c0,0.798-0.019,1.277-0.052,1.437
				c-0.032,0.16-0.097,0.28-0.24,0.358c-0.143,0.079-0.403,0.118-0.719,0.118v0.375h3.287v-0.375c-0.443,0-0.665-0.041-0.809-0.122
				C70.435,68.549,70.336,68.424,70.307,68.256z M25.167,62.192c-0.443,0-0.858,0.091-1.255,0.273
				c-0.087,0.04-0.188,0.085-0.251,0.134v0.419c0-0.021,0.06-0.041,0.093-0.06c0.335-0.19,0.686-0.285,1.06-0.285
				c0.605,0,1.126,0.247,1.564,0.741s0.656,1.24,0.656,2.239c0,1.15-0.228,1.989-0.682,2.515c-0.454,0.526-0.987,0.789-1.598,0.789
				c-0.362,0-0.701-0.091-1.028-0.273c-0.024-0.013-0.065-0.028-0.065-0.042v0.404c0.063,0.037,0.132,0.071,0.202,0.102
				c0.376,0.165,0.766,0.248,1.177,0.248c1,0,1.806-0.35,2.42-1.05s0.92-1.571,0.92-2.613c0-1.064-0.306-1.92-0.917-2.568
				C26.851,62.516,26.086,62.192,25.167,62.192z M22.833,72.351c-0.03-0.168-0.057-0.638-0.057-1.408v-8.196
				c0-0.205-0.072-0.344-0.123-0.598h-0.219c-0.816,0.254-1.491,0.396-2.06,0.45v0.375h0.276c0.346,0,0.587,0.049,0.722,0.146
				c0.135,0.098,0.216,0.239,0.235,0.423c0.019,0.184,0.032,0.632,0.032,1.343v6.056c0,0.744-0.013,1.193-0.032,1.347
				c-0.019,0.155-0.088,0.264-0.205,0.375c-0.116,0.111-0.368,0.143-0.752,0.143h-0.276v0.444h3.54v-0.396
				c-0.443,0-0.664-0.042-0.805-0.126S22.862,72.519,22.833,72.351z M52.91,68.313c-0.027-0.168-0.044-0.64-0.044-1.416v-8.936
				H52.73c-0.779,0.19-1.508,0.299-2.141,0.315v0.383h0.162c0.346,0,0.587,0.045,0.722,0.142c0.135,0.098,0.21,0.237,0.229,0.421
				c0.019,0.185,0.026,0.63,0.026,1.341v2.605c0-0.021,0,0.452,0,0.472v4.095c0,0.031,0,0.456,0,0.456v1.205
				c0,0,1.517-0.195,2.212-0.212V68.81c-0.316,0-0.628-0.041-0.771-0.122C53.026,68.606,52.937,68.481,52.91,68.313z M50.759,68.614
				c-0.351,0.195-0.732,0.293-1.143,0.293c-0.616,0-1.134-0.258-1.553-0.773c-0.419-0.515-0.629-1.316-0.629-2.401
				c0-1.069,0.204-1.84,0.612-2.312s0.918-0.708,1.529-0.708c0.362,0,0.723,0.077,1.083,0.232c0.04,0.017,0.079,0.035,0.119,0.054
				l-0.004-0.485c-0.058-0.028-0.117-0.054-0.176-0.078c-0.4-0.163-0.825-0.244-1.273-0.244c-0.881,0-1.641,0.335-2.279,1.005
				c-0.638,0.67-0.957,1.548-0.957,2.633c0,0.988,0.312,1.829,0.937,2.523c0.624,0.695,1.367,1.042,2.226,1.042
				c0.454,0,0.893-0.1,1.318-0.301c0.084-0.04,0.167-0.085,0.251-0.132l-0.003-0.382C50.798,68.591,50.779,68.603,50.759,68.614z"/>
		</g>
	</g>
	<rect y="24.5" fill="none" width="124" height="49"/>
</g>
</svg>
